M48
; DRILL file {KiCad (5.1.2)-1} date 8/23/2019 10:18:46 AM
; FORMAT={-:-/ absolute / metric / decimal}
; #@! TF.CreationDate,2019-08-23T10:18:46-04:00
; #@! TF.GenerationSoftware,Kicad,Pcbnew,(5.1.2)-1
; #@! TF.FileFunction,Plated,1,2,PTH
FMAT,2
METRIC
T1C0.400
T2C0.700
T3C0.800
T4C0.900
T5C1.000
T6C1.999
T7C3.700
%
G90
G05
T1
X62.23Y-90.17
X63.5Y-90.17
X64.77Y-90.17
X64.77Y-91.44
X64.77Y-97.79
X64.77Y-99.06
X64.77Y-100.33
X64.77Y-101.6
X64.77Y-102.87
X64.77Y-104.14
X64.77Y-107.95
X64.77Y-109.22
X64.77Y-110.49
X64.77Y-111.76
X66.04Y-97.79
X66.04Y-111.76
X67.31Y-97.79
X67.31Y-111.76
X68.58Y-97.79
X68.58Y-111.76
X69.85Y-97.79
X69.85Y-111.76
X71.12Y-97.79
X71.12Y-111.76
X72.39Y-88.9
X72.39Y-90.17
X72.39Y-91.44
X72.39Y-92.71
X72.39Y-93.98
X72.39Y-95.25
X72.39Y-96.52
X72.39Y-97.79
X72.39Y-105.41
X72.39Y-111.76
X73.66Y-104.14
X73.66Y-105.41
X73.66Y-111.76
X74.93Y-111.76
X77.47Y-119.38
X77.47Y-120.65
X77.47Y-121.92
X77.47Y-123.19
X77.47Y-124.46
X77.47Y-125.73
X77.47Y-127.0
X78.74Y-114.3
X78.74Y-115.57
X78.74Y-116.84
X78.74Y-118.11
X78.74Y-119.38
X78.74Y-120.65
X78.74Y-121.92
X78.74Y-123.19
X78.74Y-124.46
X78.74Y-125.73
X78.74Y-127.0
X78.74Y-128.27
X81.28Y-85.09
X81.28Y-86.36
X81.28Y-87.63
X81.28Y-88.9
X81.28Y-90.17
X81.28Y-91.44
X81.28Y-92.71
X81.28Y-93.98
X81.28Y-95.25
X81.28Y-96.52
X85.09Y-120.65
X85.09Y-121.92
X85.09Y-123.19
X85.09Y-124.46
X85.09Y-125.73
X85.09Y-127.0
X85.09Y-128.27
X85.09Y-129.54
X85.09Y-130.81
X85.09Y-132.08
X86.36Y-90.17
X86.36Y-91.44
X86.36Y-120.65
X86.36Y-121.92
X86.36Y-123.19
X86.36Y-124.46
X86.36Y-125.73
X86.36Y-127.0
X86.36Y-128.27
X86.36Y-129.54
X86.36Y-130.81
X86.36Y-132.08
X87.63Y-120.65
X87.63Y-121.92
X87.63Y-123.19
X87.63Y-124.46
X87.63Y-125.73
X87.63Y-127.0
X87.63Y-128.27
X87.63Y-129.54
X87.63Y-130.81
X87.63Y-132.08
X88.9Y-80.01
X88.9Y-81.28
X88.9Y-82.55
X88.9Y-120.65
X88.9Y-121.92
X88.9Y-123.19
X88.9Y-124.46
X88.9Y-125.73
X88.9Y-127.0
X88.9Y-128.27
X88.9Y-129.54
X88.9Y-130.81
X88.9Y-132.08
X90.17Y-80.01
X90.17Y-81.28
X90.17Y-82.55
X91.44Y-80.01
X91.44Y-81.28
X91.44Y-82.55
X92.71Y-80.01
X92.71Y-81.28
X92.71Y-82.55
X93.98Y-80.01
X93.98Y-81.28
X93.98Y-82.55
X95.25Y-80.01
X95.25Y-81.28
X95.25Y-82.55
X96.52Y-120.65
X96.52Y-121.92
X96.52Y-123.19
X96.52Y-124.46
X96.52Y-125.73
X96.52Y-127.0
X96.52Y-128.27
X96.52Y-129.54
X96.52Y-130.81
X96.52Y-132.08
X97.79Y-99.06
X97.79Y-100.33
X97.79Y-120.65
X97.79Y-121.92
X97.79Y-123.19
X97.79Y-123.19
X97.79Y-124.46
X97.79Y-125.73
X97.79Y-127.0
X97.79Y-128.27
X97.79Y-129.54
X97.79Y-130.81
X97.79Y-132.08
X99.06Y-120.65
X99.06Y-121.92
X99.06Y-123.19
X99.06Y-124.46
X99.06Y-125.73
X99.06Y-127.0
X99.06Y-128.27
X99.06Y-129.54
X99.06Y-130.81
X99.06Y-132.08
X101.79Y-84.899
X102.87Y-76.2
X102.87Y-77.47
X102.87Y-78.74
X103.06Y-83.629
X103.06Y-86.169
X104.14Y-77.47
X104.14Y-78.74
X104.394Y-84.963
X105.41Y-78.74
T2
X90.424Y-143.256
X92.964Y-140.716
X92.964Y-145.796
X95.504Y-143.256
T3
X107.442Y-103.41
X107.442Y-105.41
X77.724Y-81.28
X79.724Y-81.28
X107.696Y-74.454
X107.696Y-76.454
X107.442Y-109.474
X107.442Y-111.474
X89.154Y-98.584
X89.154Y-100.584
X55.912Y-74.168
X57.912Y-74.168
X75.724Y-94.488
X77.724Y-94.488
X75.724Y-88.9
X77.724Y-88.9
X77.724Y-74.422
X79.724Y-74.422
X84.511Y-79.045
X84.511Y-81.585
X84.511Y-84.125
X84.511Y-86.665
X84.511Y-89.205
X84.511Y-91.745
X84.511Y-94.285
X84.511Y-96.825
X84.511Y-99.365
X84.511Y-101.905
X84.511Y-104.445
X84.511Y-106.985
X84.511Y-109.525
X84.511Y-112.065
X84.511Y-114.605
X99.751Y-79.045
X99.751Y-81.585
X99.751Y-84.125
X99.751Y-86.665
X99.751Y-89.205
X99.751Y-91.745
X99.751Y-94.285
X99.751Y-96.825
X99.751Y-99.365
X99.751Y-101.905
X99.751Y-104.445
X99.751Y-106.985
X99.751Y-109.525
X99.751Y-112.065
X99.751Y-114.605
X69.342Y-100.838
X69.342Y-108.458
X71.882Y-100.838
X71.882Y-108.458
X74.422Y-100.838
X74.422Y-108.458
X76.962Y-100.838
X76.962Y-108.458
T4
X62.992Y-122.682
X65.532Y-122.682
X66.548Y-93.98
X69.088Y-93.98
T5
X69.85Y-115.824
X72.39Y-115.824
X74.93Y-115.824
X59.182Y-101.346
X59.182Y-103.886
X59.182Y-106.426
X64.77Y-78.74
X67.31Y-78.74
X69.85Y-78.74
X107.696Y-79.756
X107.696Y-82.296
X107.696Y-84.836
X107.696Y-87.376
X107.696Y-89.916
X107.696Y-92.456
X107.696Y-94.996
X107.696Y-97.536
T6
X56.642Y-115.57
X62.992Y-115.57
X67.031Y-83.871
X73.381Y-83.871
X58.928Y-86.106
X58.928Y-92.456
T7
X72.39Y-124.612
X72.39Y-73.076
X105.334Y-125.044
T0
M30
