M48
; DRILL file {KiCad (5.1.2)-1} date 9/21/2019 6:25:20 PM
; FORMAT={-:-/ absolute / metric / decimal}
; #@! TF.CreationDate,2019-09-21T18:25:20-04:00
; #@! TF.GenerationSoftware,Kicad,Pcbnew,(5.1.2)-1
; #@! TF.FileFunction,Plated,1,2,PTH
FMAT,2
METRIC
T1C0.400
T2C0.700
T3C0.800
T4C0.900
T5C1.000
T6C1.400
T7C3.700
%
G90
G05
T1
X32.385Y-60.96
X32.385Y-62.23
X32.385Y-63.5
X32.385Y-64.77
X32.385Y-66.04
X32.385Y-67.31
X33.655Y-60.96
X33.655Y-62.23
X33.655Y-63.5
X33.655Y-64.77
X33.655Y-66.04
X33.655Y-67.31
X34.925Y-60.96
X34.925Y-62.23
X34.925Y-63.5
X34.925Y-64.77
X34.925Y-66.04
X34.925Y-67.31
X36.195Y-60.96
X36.195Y-62.23
X36.195Y-63.5
X36.195Y-64.77
X36.195Y-66.04
X36.195Y-67.31
X37.465Y-60.96
X37.465Y-62.23
X37.465Y-63.5
X37.465Y-64.77
X37.465Y-66.04
X37.465Y-67.31
X38.735Y-60.96
X38.735Y-62.23
X38.735Y-63.5
X38.735Y-64.77
X38.735Y-66.04
X38.735Y-67.31
X40.005Y-60.96
X40.005Y-62.23
X40.005Y-63.5
X41.275Y-60.96
X41.275Y-62.23
X41.275Y-63.5
X42.545Y-60.96
X42.545Y-62.23
X42.545Y-63.5
X43.815Y-60.96
X43.815Y-62.23
X43.815Y-63.5
X45.085Y-60.96
X45.085Y-62.23
X45.085Y-63.5
X45.085Y-98.425
X45.72Y-84.455
X45.72Y-112.395
X46.355Y-60.96
X46.355Y-62.23
X46.355Y-63.5
X54.61Y-127.0
X54.61Y-128.27
X55.88Y-127.0
X55.88Y-128.27
X57.785Y-74.295
X57.785Y-75.565
X57.785Y-94.615
X57.785Y-104.14
X59.055Y-74.295
X59.055Y-75.565
X77.47Y-119.38
X77.47Y-120.65
X77.47Y-121.92
X77.47Y-123.19
X77.47Y-124.46
X77.47Y-125.73
X77.47Y-127.0
X77.47Y-128.27
X77.47Y-129.54
X78.74Y-119.38
X78.74Y-120.65
X78.74Y-121.92
X78.74Y-123.19
X78.74Y-124.46
X78.74Y-125.73
X78.74Y-127.0
X78.74Y-128.27
X78.74Y-129.54
X80.01Y-119.38
X80.01Y-120.65
X80.01Y-121.92
X80.01Y-123.19
X80.01Y-124.46
X80.01Y-125.73
X80.01Y-127.0
X80.01Y-128.27
X80.01Y-129.54
X85.09Y-120.65
X85.09Y-121.92
X85.09Y-123.19
X85.09Y-124.46
X85.09Y-125.73
X85.09Y-127.0
X85.09Y-128.27
X85.09Y-129.54
X85.09Y-130.81
X85.09Y-132.08
X86.36Y-120.65
X86.36Y-121.92
X86.36Y-123.19
X86.36Y-124.46
X86.36Y-125.73
X86.36Y-127.0
X86.36Y-128.27
X86.36Y-129.54
X86.36Y-130.81
X86.36Y-132.08
X87.63Y-61.595
X87.63Y-62.865
X87.63Y-64.135
X87.63Y-65.405
X87.63Y-66.675
X87.63Y-67.945
X87.63Y-120.65
X87.63Y-121.92
X87.63Y-123.19
X87.63Y-124.46
X87.63Y-125.73
X87.63Y-127.0
X87.63Y-128.27
X87.63Y-129.54
X87.63Y-130.81
X87.63Y-132.08
X88.9Y-61.595
X88.9Y-62.865
X88.9Y-64.135
X88.9Y-65.405
X88.9Y-66.675
X88.9Y-67.945
X88.9Y-120.65
X88.9Y-121.92
X88.9Y-123.19
X88.9Y-124.46
X88.9Y-125.73
X88.9Y-127.0
X88.9Y-128.27
X88.9Y-129.54
X88.9Y-130.81
X88.9Y-132.08
X89.535Y-78.74
X89.535Y-80.01
X90.17Y-61.595
X90.17Y-62.865
X90.17Y-64.135
X90.17Y-65.405
X90.17Y-66.675
X90.17Y-67.945
X90.805Y-78.74
X90.805Y-80.01
X91.44Y-61.595
X91.44Y-62.865
X91.44Y-64.135
X91.44Y-65.405
X91.44Y-66.675
X91.44Y-67.945
X92.075Y-78.74
X92.075Y-80.01
X92.71Y-61.595
X92.71Y-62.865
X92.71Y-64.135
X92.71Y-65.405
X92.71Y-66.675
X92.71Y-67.945
X93.345Y-78.74
X93.345Y-80.01
X93.98Y-61.595
X93.98Y-62.865
X93.98Y-64.135
X93.98Y-65.405
X93.98Y-66.675
X93.98Y-67.945
X93.98Y-86.36
X93.98Y-87.63
X94.615Y-78.74
X94.615Y-80.01
X94.615Y-81.28
X94.615Y-82.55
X94.615Y-93.345
X94.615Y-94.615
X95.25Y-61.595
X95.25Y-62.865
X95.25Y-64.135
X95.25Y-65.405
X95.25Y-66.675
X95.25Y-67.945
X95.25Y-86.36
X95.25Y-87.63
X95.25Y-104.14
X95.885Y-78.74
X95.885Y-80.01
X95.885Y-81.28
X95.885Y-82.55
X95.885Y-93.345
X95.885Y-94.615
X96.52Y-61.595
X96.52Y-62.865
X96.52Y-64.135
X96.52Y-65.405
X96.52Y-66.675
X96.52Y-67.945
X96.52Y-120.65
X96.52Y-121.92
X96.52Y-123.19
X96.52Y-124.46
X96.52Y-125.73
X96.52Y-127.0
X96.52Y-128.27
X96.52Y-129.54
X96.52Y-130.81
X96.52Y-132.08
X97.79Y-61.595
X97.79Y-62.865
X97.79Y-64.135
X97.79Y-65.405
X97.79Y-66.675
X97.79Y-67.945
X97.79Y-120.65
X97.79Y-121.92
X97.79Y-123.19
X97.79Y-123.19
X97.79Y-124.46
X97.79Y-125.73
X97.79Y-127.0
X97.79Y-128.27
X97.79Y-129.54
X97.79Y-130.81
X97.79Y-132.08
X99.06Y-61.595
X99.06Y-62.865
X99.06Y-64.135
X99.06Y-65.405
X99.06Y-66.675
X99.06Y-67.945
X99.06Y-120.65
X99.06Y-121.92
X99.06Y-123.19
X99.06Y-124.46
X99.06Y-125.73
X99.06Y-127.0
X99.06Y-128.27
X99.06Y-129.54
X99.06Y-130.81
X99.06Y-132.08
X100.33Y-61.595
X100.33Y-62.865
X100.33Y-64.135
X100.33Y-65.405
X100.33Y-66.675
X100.33Y-67.945
X101.6Y-61.595
X101.6Y-62.865
X101.6Y-64.135
X101.6Y-65.405
X101.6Y-66.675
X101.6Y-67.945
X102.87Y-61.595
X102.87Y-62.865
X102.87Y-64.135
X102.87Y-65.405
X102.87Y-66.675
X102.87Y-67.945
X103.505Y-132.715
X103.505Y-133.985
X104.14Y-61.595
X104.14Y-62.865
X104.14Y-64.135
X104.14Y-65.405
X104.14Y-66.675
X104.14Y-67.945
X104.775Y-132.715
X104.775Y-133.985
X105.41Y-61.595
X105.41Y-62.865
X105.41Y-64.135
X105.41Y-65.405
X105.41Y-66.675
X105.41Y-67.945
X106.68Y-61.595
X106.68Y-62.865
X106.68Y-64.135
X106.68Y-65.405
X106.68Y-66.675
X106.68Y-67.945
X107.315Y-116.84
X107.315Y-118.11
X107.95Y-61.595
X107.95Y-62.865
X107.95Y-64.135
X107.95Y-65.405
X107.95Y-66.675
X107.95Y-67.945
X108.585Y-116.84
X108.585Y-118.11
X109.22Y-61.595
X109.22Y-62.865
X109.22Y-64.135
X109.22Y-65.405
X109.22Y-66.675
X109.22Y-67.945
T2
X90.424Y-143.256
X92.964Y-140.716
X92.964Y-145.796
X95.504Y-143.256
T3
X53.88Y-67.945
X55.88Y-67.945
X107.442Y-109.474
X107.442Y-111.474
X77.724Y-74.422
X79.724Y-74.422
X60.325Y-122.555
X60.325Y-124.555
X77.724Y-81.28
X79.724Y-81.28
X64.135Y-85.725
X66.135Y-85.725
X84.511Y-79.045
X84.511Y-81.585
X84.511Y-84.125
X84.511Y-86.665
X84.511Y-89.205
X84.511Y-91.745
X84.511Y-94.285
X84.511Y-96.825
X84.511Y-99.365
X84.511Y-101.905
X84.511Y-104.445
X84.511Y-106.985
X84.511Y-109.525
X84.511Y-112.065
X84.511Y-114.605
X99.751Y-79.045
X99.751Y-81.585
X99.751Y-84.125
X99.751Y-86.665
X99.751Y-89.205
X99.751Y-91.745
X99.751Y-94.285
X99.751Y-96.825
X99.751Y-99.365
X99.751Y-101.905
X99.751Y-104.445
X99.751Y-106.985
X99.751Y-109.525
X99.751Y-112.065
X99.751Y-114.605
X62.23Y-106.045
X64.23Y-106.045
X107.442Y-103.41
X107.442Y-105.41
X59.055Y-110.49
X59.055Y-113.03
X59.055Y-115.57
X59.055Y-118.11
X66.675Y-110.49
X66.675Y-113.03
X66.675Y-115.57
X66.675Y-118.11
X66.04Y-122.555
X66.04Y-124.555
X107.696Y-74.454
X107.696Y-76.454
X60.325Y-93.98
X60.325Y-96.52
X60.325Y-99.06
X60.325Y-101.6
X67.945Y-93.98
X67.945Y-96.52
X67.945Y-99.06
X67.945Y-101.6
X58.325Y-85.725
X60.325Y-85.725
T4
X52.07Y-120.65
X54.61Y-120.65
X51.435Y-79.375
X53.975Y-79.375
X52.07Y-107.95
X54.61Y-107.95
X51.435Y-93.345
X53.975Y-93.345
T5
X46.99Y-116.84
X46.99Y-119.38
X46.99Y-121.92
X107.696Y-79.756
X107.696Y-82.296
X107.696Y-84.836
X107.696Y-87.376
X107.696Y-89.916
X107.696Y-92.456
X107.696Y-94.996
X107.696Y-97.536
X46.99Y-102.87
X46.99Y-105.41
X46.99Y-107.95
X46.99Y-88.9
X46.99Y-91.44
X46.99Y-93.98
X64.77Y-76.2
X67.31Y-76.2
X69.85Y-76.2
X46.99Y-74.93
X46.99Y-77.47
X46.99Y-80.01
T6
X38.1Y-74.93
X38.1Y-79.93
X64.215Y-65.405
X69.215Y-65.405
X38.1Y-88.9
X38.1Y-93.9
X38.1Y-116.84
X38.1Y-121.84
X38.1Y-102.95
X38.1Y-107.95
T7
X72.39Y-124.612
X72.39Y-90.17
X105.334Y-125.044
T0
M30
