G04 #@! TF.GenerationSoftware,KiCad,Pcbnew,(5.1.2)-1*
G04 #@! TF.CreationDate,2019-09-21T18:25:19-04:00*
G04 #@! TF.ProjectId,VAP_thermal_control,5641505f-7468-4657-926d-616c5f636f6e,rev?*
G04 #@! TF.SameCoordinates,Original*
G04 #@! TF.FileFunction,Soldermask,Bot*
G04 #@! TF.FilePolarity,Negative*
%FSLAX46Y46*%
G04 Gerber Fmt 4.6, Leading zero omitted, Abs format (unit mm)*
G04 Created by KiCad (PCBNEW (5.1.2)-1) date 2019-09-21 18:25:19*
%MOMM*%
%LPD*%
G04 APERTURE LIST*
%ADD10C,0.100000*%
G04 APERTURE END LIST*
D10*
G36*
X93027855Y-145148140D02*
G01*
X93091618Y-145154420D01*
X93182404Y-145181960D01*
X93214336Y-145191646D01*
X93327425Y-145252094D01*
X93426554Y-145333446D01*
X93507906Y-145432575D01*
X93568354Y-145545664D01*
X93568355Y-145545668D01*
X93605580Y-145668382D01*
X93618149Y-145796000D01*
X93605580Y-145923618D01*
X93578040Y-146014404D01*
X93568354Y-146046336D01*
X93507906Y-146159425D01*
X93426554Y-146258554D01*
X93327425Y-146339906D01*
X93214336Y-146400354D01*
X93182404Y-146410040D01*
X93091618Y-146437580D01*
X93027855Y-146443860D01*
X92995974Y-146447000D01*
X92932026Y-146447000D01*
X92900145Y-146443860D01*
X92836382Y-146437580D01*
X92745596Y-146410040D01*
X92713664Y-146400354D01*
X92600575Y-146339906D01*
X92501446Y-146258554D01*
X92420094Y-146159425D01*
X92359646Y-146046336D01*
X92349960Y-146014404D01*
X92322420Y-145923618D01*
X92309851Y-145796000D01*
X92322420Y-145668382D01*
X92359645Y-145545668D01*
X92359646Y-145545664D01*
X92420094Y-145432575D01*
X92501446Y-145333446D01*
X92600575Y-145252094D01*
X92713664Y-145191646D01*
X92745596Y-145181960D01*
X92836382Y-145154420D01*
X92900145Y-145148140D01*
X92932026Y-145145000D01*
X92995974Y-145145000D01*
X93027855Y-145148140D01*
X93027855Y-145148140D01*
G37*
G36*
X95567855Y-142608140D02*
G01*
X95631618Y-142614420D01*
X95722404Y-142641960D01*
X95754336Y-142651646D01*
X95867425Y-142712094D01*
X95966554Y-142793446D01*
X96047906Y-142892575D01*
X96108354Y-143005664D01*
X96108355Y-143005668D01*
X96145580Y-143128382D01*
X96158149Y-143256000D01*
X96145580Y-143383618D01*
X96118040Y-143474404D01*
X96108354Y-143506336D01*
X96047906Y-143619425D01*
X95966554Y-143718554D01*
X95867425Y-143799906D01*
X95754336Y-143860354D01*
X95722404Y-143870040D01*
X95631618Y-143897580D01*
X95567855Y-143903860D01*
X95535974Y-143907000D01*
X95472026Y-143907000D01*
X95440145Y-143903860D01*
X95376382Y-143897580D01*
X95285596Y-143870040D01*
X95253664Y-143860354D01*
X95140575Y-143799906D01*
X95041446Y-143718554D01*
X94960094Y-143619425D01*
X94899646Y-143506336D01*
X94889960Y-143474404D01*
X94862420Y-143383618D01*
X94849851Y-143256000D01*
X94862420Y-143128382D01*
X94899645Y-143005668D01*
X94899646Y-143005664D01*
X94960094Y-142892575D01*
X95041446Y-142793446D01*
X95140575Y-142712094D01*
X95253664Y-142651646D01*
X95285596Y-142641960D01*
X95376382Y-142614420D01*
X95440145Y-142608140D01*
X95472026Y-142605000D01*
X95535974Y-142605000D01*
X95567855Y-142608140D01*
X95567855Y-142608140D01*
G37*
G36*
X90487855Y-142608140D02*
G01*
X90551618Y-142614420D01*
X90642404Y-142641960D01*
X90674336Y-142651646D01*
X90787425Y-142712094D01*
X90886554Y-142793446D01*
X90967906Y-142892575D01*
X91028354Y-143005664D01*
X91028355Y-143005668D01*
X91065580Y-143128382D01*
X91078149Y-143256000D01*
X91065580Y-143383618D01*
X91038040Y-143474404D01*
X91028354Y-143506336D01*
X90967906Y-143619425D01*
X90886554Y-143718554D01*
X90787425Y-143799906D01*
X90674336Y-143860354D01*
X90642404Y-143870040D01*
X90551618Y-143897580D01*
X90487855Y-143903860D01*
X90455974Y-143907000D01*
X90392026Y-143907000D01*
X90360145Y-143903860D01*
X90296382Y-143897580D01*
X90205596Y-143870040D01*
X90173664Y-143860354D01*
X90060575Y-143799906D01*
X89961446Y-143718554D01*
X89880094Y-143619425D01*
X89819646Y-143506336D01*
X89809960Y-143474404D01*
X89782420Y-143383618D01*
X89769851Y-143256000D01*
X89782420Y-143128382D01*
X89819645Y-143005668D01*
X89819646Y-143005664D01*
X89880094Y-142892575D01*
X89961446Y-142793446D01*
X90060575Y-142712094D01*
X90173664Y-142651646D01*
X90205596Y-142641960D01*
X90296382Y-142614420D01*
X90360145Y-142608140D01*
X90392026Y-142605000D01*
X90455974Y-142605000D01*
X90487855Y-142608140D01*
X90487855Y-142608140D01*
G37*
G36*
X93091618Y-139874420D02*
G01*
X93182404Y-139901960D01*
X93214336Y-139911646D01*
X93327425Y-139972094D01*
X93426554Y-140053446D01*
X93507906Y-140152575D01*
X93568354Y-140265664D01*
X93568355Y-140265668D01*
X93605580Y-140388382D01*
X93615000Y-140484028D01*
X93615000Y-140947973D01*
X93605580Y-141043618D01*
X93578040Y-141134404D01*
X93568354Y-141166336D01*
X93507906Y-141279425D01*
X93426554Y-141378553D01*
X93327424Y-141459906D01*
X93214335Y-141520354D01*
X93182403Y-141530040D01*
X93091617Y-141557580D01*
X92964000Y-141570149D01*
X92836382Y-141557580D01*
X92745596Y-141530040D01*
X92713664Y-141520354D01*
X92600575Y-141459906D01*
X92501447Y-141378554D01*
X92420094Y-141279424D01*
X92359646Y-141166335D01*
X92349960Y-141134403D01*
X92322420Y-141043617D01*
X92313000Y-140947972D01*
X92313000Y-140484027D01*
X92322420Y-140388382D01*
X92359645Y-140265668D01*
X92359646Y-140265664D01*
X92420094Y-140152575D01*
X92501447Y-140053447D01*
X92600576Y-139972094D01*
X92713665Y-139911646D01*
X92745597Y-139901960D01*
X92836383Y-139874420D01*
X92964000Y-139861851D01*
X93091618Y-139874420D01*
X93091618Y-139874420D01*
G37*
G36*
X106183301Y-121388690D02*
G01*
X106427926Y-121437349D01*
X107110565Y-121720107D01*
X107724923Y-122130608D01*
X108247392Y-122653077D01*
X108657893Y-123267435D01*
X108917418Y-123893985D01*
X108940651Y-123950075D01*
X109084800Y-124674757D01*
X109084800Y-125413643D01*
X108988701Y-125896764D01*
X108940651Y-126138326D01*
X108657893Y-126820965D01*
X108247392Y-127435323D01*
X107724923Y-127957792D01*
X107110565Y-128368293D01*
X106427926Y-128651051D01*
X106186364Y-128699101D01*
X105703243Y-128795200D01*
X104964357Y-128795200D01*
X104481236Y-128699101D01*
X104239674Y-128651051D01*
X103557035Y-128368293D01*
X102942677Y-127957792D01*
X102420208Y-127435323D01*
X102009707Y-126820965D01*
X101726949Y-126138326D01*
X101678899Y-125896764D01*
X101582800Y-125413643D01*
X101582800Y-124674757D01*
X101726949Y-123950075D01*
X101750182Y-123893985D01*
X102009707Y-123267435D01*
X102420208Y-122653077D01*
X102942677Y-122130608D01*
X103557035Y-121720107D01*
X104239674Y-121437349D01*
X104484299Y-121388690D01*
X104964357Y-121293200D01*
X105703243Y-121293200D01*
X106183301Y-121388690D01*
X106183301Y-121388690D01*
G37*
G36*
X73091220Y-120927395D02*
G01*
X73484126Y-121005549D01*
X74166765Y-121288307D01*
X74781123Y-121698808D01*
X75303592Y-122221277D01*
X75714093Y-122835635D01*
X75996851Y-123518274D01*
X75996851Y-123518275D01*
X76141000Y-124242957D01*
X76141000Y-124981843D01*
X76056629Y-125406000D01*
X75996851Y-125706526D01*
X75714093Y-126389165D01*
X75303592Y-127003523D01*
X74781123Y-127525992D01*
X74166765Y-127936493D01*
X73484126Y-128219251D01*
X73242564Y-128267301D01*
X72759443Y-128363400D01*
X72020557Y-128363400D01*
X71537436Y-128267301D01*
X71295874Y-128219251D01*
X70613235Y-127936493D01*
X69998877Y-127525992D01*
X69476408Y-127003523D01*
X69065907Y-126389165D01*
X68783149Y-125706526D01*
X68723371Y-125406000D01*
X68639000Y-124981843D01*
X68639000Y-124242957D01*
X68783149Y-123518275D01*
X68783149Y-123518274D01*
X69065907Y-122835635D01*
X69476408Y-122221277D01*
X69998877Y-121698808D01*
X70613235Y-121288307D01*
X71295874Y-121005549D01*
X71688780Y-120927395D01*
X72020557Y-120861400D01*
X72759443Y-120861400D01*
X73091220Y-120927395D01*
X73091220Y-120927395D01*
G37*
G36*
X66288228Y-123736703D02*
G01*
X66443100Y-123800853D01*
X66582481Y-123893985D01*
X66701015Y-124012519D01*
X66794147Y-124151900D01*
X66858297Y-124306772D01*
X66891000Y-124471184D01*
X66891000Y-124638816D01*
X66858297Y-124803228D01*
X66794147Y-124958100D01*
X66701015Y-125097481D01*
X66582481Y-125216015D01*
X66443100Y-125309147D01*
X66288228Y-125373297D01*
X66123816Y-125406000D01*
X65956184Y-125406000D01*
X65791772Y-125373297D01*
X65636900Y-125309147D01*
X65497519Y-125216015D01*
X65378985Y-125097481D01*
X65285853Y-124958100D01*
X65221703Y-124803228D01*
X65189000Y-124638816D01*
X65189000Y-124471184D01*
X65221703Y-124306772D01*
X65285853Y-124151900D01*
X65378985Y-124012519D01*
X65497519Y-123893985D01*
X65636900Y-123800853D01*
X65791772Y-123736703D01*
X65956184Y-123704000D01*
X66123816Y-123704000D01*
X66288228Y-123736703D01*
X66288228Y-123736703D01*
G37*
G36*
X60573228Y-123736703D02*
G01*
X60728100Y-123800853D01*
X60867481Y-123893985D01*
X60986015Y-124012519D01*
X61079147Y-124151900D01*
X61143297Y-124306772D01*
X61176000Y-124471184D01*
X61176000Y-124638816D01*
X61143297Y-124803228D01*
X61079147Y-124958100D01*
X60986015Y-125097481D01*
X60867481Y-125216015D01*
X60728100Y-125309147D01*
X60573228Y-125373297D01*
X60408816Y-125406000D01*
X60241184Y-125406000D01*
X60076772Y-125373297D01*
X59921900Y-125309147D01*
X59782519Y-125216015D01*
X59663985Y-125097481D01*
X59570853Y-124958100D01*
X59506703Y-124803228D01*
X59474000Y-124638816D01*
X59474000Y-124471184D01*
X59506703Y-124306772D01*
X59570853Y-124151900D01*
X59663985Y-124012519D01*
X59782519Y-123893985D01*
X59921900Y-123800853D01*
X60076772Y-123736703D01*
X60241184Y-123704000D01*
X60408816Y-123704000D01*
X60573228Y-123736703D01*
X60573228Y-123736703D01*
G37*
G36*
X61176000Y-123406000D02*
G01*
X59474000Y-123406000D01*
X59474000Y-121704000D01*
X61176000Y-121704000D01*
X61176000Y-123406000D01*
X61176000Y-123406000D01*
G37*
G36*
X66891000Y-123406000D02*
G01*
X65189000Y-123406000D01*
X65189000Y-121704000D01*
X66891000Y-121704000D01*
X66891000Y-123406000D01*
X66891000Y-123406000D01*
G37*
G36*
X39003097Y-120794069D02*
G01*
X39106032Y-120804207D01*
X39304146Y-120864305D01*
X39304149Y-120864306D01*
X39400975Y-120916061D01*
X39486729Y-120961897D01*
X39646765Y-121093235D01*
X39778103Y-121253271D01*
X39796830Y-121288307D01*
X39875694Y-121435851D01*
X39875695Y-121435854D01*
X39935793Y-121633968D01*
X39956085Y-121840000D01*
X39935793Y-122046032D01*
X39882632Y-122221277D01*
X39875694Y-122244149D01*
X39823939Y-122340975D01*
X39778103Y-122426729D01*
X39646765Y-122586765D01*
X39486729Y-122718103D01*
X39400975Y-122763939D01*
X39304149Y-122815694D01*
X39304146Y-122815695D01*
X39106032Y-122875793D01*
X39003097Y-122885931D01*
X38951631Y-122891000D01*
X37248369Y-122891000D01*
X37196903Y-122885931D01*
X37093968Y-122875793D01*
X36895854Y-122815695D01*
X36895851Y-122815694D01*
X36799025Y-122763939D01*
X36713271Y-122718103D01*
X36553235Y-122586765D01*
X36421897Y-122426729D01*
X36376061Y-122340975D01*
X36324306Y-122244149D01*
X36317368Y-122221277D01*
X36264207Y-122046032D01*
X36243915Y-121840000D01*
X36264207Y-121633968D01*
X36324305Y-121435854D01*
X36324306Y-121435851D01*
X36403170Y-121288307D01*
X36421897Y-121253271D01*
X36553235Y-121093235D01*
X36713271Y-120961897D01*
X36799025Y-120916061D01*
X36895851Y-120864306D01*
X36895854Y-120864305D01*
X37093968Y-120804207D01*
X37196903Y-120794069D01*
X37248369Y-120789000D01*
X38951631Y-120789000D01*
X39003097Y-120794069D01*
X39003097Y-120794069D01*
G37*
G36*
X47941000Y-122871000D02*
G01*
X46039000Y-122871000D01*
X46039000Y-120969000D01*
X47941000Y-120969000D01*
X47941000Y-122871000D01*
X47941000Y-122871000D01*
G37*
G36*
X53021000Y-121601000D02*
G01*
X51119000Y-121601000D01*
X51119000Y-119699000D01*
X53021000Y-119699000D01*
X53021000Y-121601000D01*
X53021000Y-121601000D01*
G37*
G36*
X54887395Y-119735546D02*
G01*
X55060466Y-119807234D01*
X55060467Y-119807235D01*
X55216227Y-119911310D01*
X55348690Y-120043773D01*
X55348691Y-120043775D01*
X55452766Y-120199534D01*
X55524454Y-120372605D01*
X55561000Y-120556333D01*
X55561000Y-120743667D01*
X55524454Y-120927395D01*
X55452766Y-121100466D01*
X55452765Y-121100467D01*
X55348690Y-121256227D01*
X55216227Y-121388690D01*
X55145645Y-121435851D01*
X55060466Y-121492766D01*
X54887395Y-121564454D01*
X54703667Y-121601000D01*
X54516333Y-121601000D01*
X54332605Y-121564454D01*
X54159534Y-121492766D01*
X54074355Y-121435851D01*
X54003773Y-121388690D01*
X53871310Y-121256227D01*
X53767235Y-121100467D01*
X53767234Y-121100466D01*
X53695546Y-120927395D01*
X53659000Y-120743667D01*
X53659000Y-120556333D01*
X53695546Y-120372605D01*
X53767234Y-120199534D01*
X53871309Y-120043775D01*
X53871310Y-120043773D01*
X54003773Y-119911310D01*
X54159533Y-119807235D01*
X54159534Y-119807234D01*
X54332605Y-119735546D01*
X54516333Y-119699000D01*
X54703667Y-119699000D01*
X54887395Y-119735546D01*
X54887395Y-119735546D01*
G37*
G36*
X47176425Y-118442760D02*
G01*
X47176428Y-118442761D01*
X47176429Y-118442761D01*
X47355693Y-118497140D01*
X47355696Y-118497142D01*
X47355697Y-118497142D01*
X47520903Y-118585446D01*
X47665712Y-118704288D01*
X47784554Y-118849097D01*
X47844367Y-118961000D01*
X47872860Y-119014307D01*
X47927239Y-119193571D01*
X47927240Y-119193575D01*
X47945601Y-119380000D01*
X47927240Y-119566425D01*
X47927239Y-119566428D01*
X47927239Y-119566429D01*
X47872860Y-119745693D01*
X47872858Y-119745696D01*
X47872858Y-119745697D01*
X47784554Y-119910903D01*
X47665712Y-120055712D01*
X47520903Y-120174554D01*
X47355697Y-120262858D01*
X47355693Y-120262860D01*
X47176429Y-120317239D01*
X47176428Y-120317239D01*
X47176425Y-120317240D01*
X47036718Y-120331000D01*
X46943282Y-120331000D01*
X46803575Y-120317240D01*
X46803572Y-120317239D01*
X46803571Y-120317239D01*
X46624307Y-120262860D01*
X46624303Y-120262858D01*
X46459097Y-120174554D01*
X46314288Y-120055712D01*
X46195446Y-119910903D01*
X46107142Y-119745697D01*
X46107142Y-119745696D01*
X46107140Y-119745693D01*
X46052761Y-119566429D01*
X46052761Y-119566428D01*
X46052760Y-119566425D01*
X46034399Y-119380000D01*
X46052760Y-119193575D01*
X46052761Y-119193571D01*
X46107140Y-119014307D01*
X46135633Y-118961000D01*
X46195446Y-118849097D01*
X46314288Y-118704288D01*
X46459097Y-118585446D01*
X46624303Y-118497142D01*
X46624304Y-118497142D01*
X46624307Y-118497140D01*
X46803571Y-118442761D01*
X46803572Y-118442761D01*
X46803575Y-118442760D01*
X46943282Y-118429000D01*
X47036718Y-118429000D01*
X47176425Y-118442760D01*
X47176425Y-118442760D01*
G37*
G36*
X59221823Y-117271313D02*
G01*
X59382242Y-117319976D01*
X59514906Y-117390886D01*
X59530078Y-117398996D01*
X59659659Y-117505341D01*
X59766004Y-117634922D01*
X59766005Y-117634924D01*
X59845024Y-117782758D01*
X59893687Y-117943177D01*
X59910117Y-118110000D01*
X59893687Y-118276823D01*
X59845024Y-118437242D01*
X59774114Y-118569906D01*
X59766004Y-118585078D01*
X59659659Y-118714659D01*
X59530078Y-118821004D01*
X59530076Y-118821005D01*
X59382242Y-118900024D01*
X59221823Y-118948687D01*
X59096804Y-118961000D01*
X59013196Y-118961000D01*
X58888177Y-118948687D01*
X58727758Y-118900024D01*
X58579924Y-118821005D01*
X58579922Y-118821004D01*
X58450341Y-118714659D01*
X58343996Y-118585078D01*
X58335886Y-118569906D01*
X58264976Y-118437242D01*
X58216313Y-118276823D01*
X58199883Y-118110000D01*
X58216313Y-117943177D01*
X58264976Y-117782758D01*
X58343995Y-117634924D01*
X58343996Y-117634922D01*
X58450341Y-117505341D01*
X58579922Y-117398996D01*
X58595094Y-117390886D01*
X58727758Y-117319976D01*
X58888177Y-117271313D01*
X59013196Y-117259000D01*
X59096804Y-117259000D01*
X59221823Y-117271313D01*
X59221823Y-117271313D01*
G37*
G36*
X67526000Y-118961000D02*
G01*
X65824000Y-118961000D01*
X65824000Y-117259000D01*
X67526000Y-117259000D01*
X67526000Y-118961000D01*
X67526000Y-118961000D01*
G37*
G36*
X39951000Y-117891000D02*
G01*
X36249000Y-117891000D01*
X36249000Y-115789000D01*
X39951000Y-115789000D01*
X39951000Y-117891000D01*
X39951000Y-117891000D01*
G37*
G36*
X47176425Y-115902760D02*
G01*
X47176428Y-115902761D01*
X47176429Y-115902761D01*
X47355693Y-115957140D01*
X47355696Y-115957142D01*
X47355697Y-115957142D01*
X47520903Y-116045446D01*
X47665712Y-116164288D01*
X47784554Y-116309097D01*
X47844367Y-116421000D01*
X47872860Y-116474307D01*
X47927239Y-116653571D01*
X47927240Y-116653575D01*
X47945601Y-116840000D01*
X47927240Y-117026425D01*
X47927239Y-117026428D01*
X47927239Y-117026429D01*
X47872860Y-117205693D01*
X47872858Y-117205696D01*
X47872858Y-117205697D01*
X47784554Y-117370903D01*
X47665712Y-117515712D01*
X47520903Y-117634554D01*
X47355697Y-117722858D01*
X47355693Y-117722860D01*
X47176429Y-117777239D01*
X47176428Y-117777239D01*
X47176425Y-117777240D01*
X47036718Y-117791000D01*
X46943282Y-117791000D01*
X46803575Y-117777240D01*
X46803572Y-117777239D01*
X46803571Y-117777239D01*
X46624307Y-117722860D01*
X46624303Y-117722858D01*
X46459097Y-117634554D01*
X46314288Y-117515712D01*
X46195446Y-117370903D01*
X46107142Y-117205697D01*
X46107142Y-117205696D01*
X46107140Y-117205693D01*
X46052761Y-117026429D01*
X46052761Y-117026428D01*
X46052760Y-117026425D01*
X46034399Y-116840000D01*
X46052760Y-116653575D01*
X46052761Y-116653571D01*
X46107140Y-116474307D01*
X46135633Y-116421000D01*
X46195446Y-116309097D01*
X46314288Y-116164288D01*
X46459097Y-116045446D01*
X46624303Y-115957142D01*
X46624304Y-115957142D01*
X46624307Y-115957140D01*
X46803571Y-115902761D01*
X46803572Y-115902761D01*
X46803575Y-115902760D01*
X46943282Y-115889000D01*
X47036718Y-115889000D01*
X47176425Y-115902760D01*
X47176425Y-115902760D01*
G37*
G36*
X66841823Y-114731313D02*
G01*
X67002242Y-114779976D01*
X67134906Y-114850886D01*
X67150078Y-114858996D01*
X67279659Y-114965341D01*
X67386004Y-115094922D01*
X67386005Y-115094924D01*
X67465024Y-115242758D01*
X67513687Y-115403177D01*
X67530117Y-115570000D01*
X67513687Y-115736823D01*
X67465024Y-115897242D01*
X67394114Y-116029906D01*
X67386004Y-116045078D01*
X67279659Y-116174659D01*
X67150078Y-116281004D01*
X67150076Y-116281005D01*
X67002242Y-116360024D01*
X66841823Y-116408687D01*
X66716804Y-116421000D01*
X66633196Y-116421000D01*
X66508177Y-116408687D01*
X66347758Y-116360024D01*
X66199924Y-116281005D01*
X66199922Y-116281004D01*
X66070341Y-116174659D01*
X65963996Y-116045078D01*
X65955886Y-116029906D01*
X65884976Y-115897242D01*
X65836313Y-115736823D01*
X65819883Y-115570000D01*
X65836313Y-115403177D01*
X65884976Y-115242758D01*
X65963995Y-115094924D01*
X65963996Y-115094922D01*
X66070341Y-114965341D01*
X66199922Y-114858996D01*
X66215094Y-114850886D01*
X66347758Y-114779976D01*
X66508177Y-114731313D01*
X66633196Y-114719000D01*
X66716804Y-114719000D01*
X66841823Y-114731313D01*
X66841823Y-114731313D01*
G37*
G36*
X59221823Y-114731313D02*
G01*
X59382242Y-114779976D01*
X59514906Y-114850886D01*
X59530078Y-114858996D01*
X59659659Y-114965341D01*
X59766004Y-115094922D01*
X59766005Y-115094924D01*
X59845024Y-115242758D01*
X59893687Y-115403177D01*
X59910117Y-115570000D01*
X59893687Y-115736823D01*
X59845024Y-115897242D01*
X59774114Y-116029906D01*
X59766004Y-116045078D01*
X59659659Y-116174659D01*
X59530078Y-116281004D01*
X59530076Y-116281005D01*
X59382242Y-116360024D01*
X59221823Y-116408687D01*
X59096804Y-116421000D01*
X59013196Y-116421000D01*
X58888177Y-116408687D01*
X58727758Y-116360024D01*
X58579924Y-116281005D01*
X58579922Y-116281004D01*
X58450341Y-116174659D01*
X58343996Y-116045078D01*
X58335886Y-116029906D01*
X58264976Y-115897242D01*
X58216313Y-115736823D01*
X58199883Y-115570000D01*
X58216313Y-115403177D01*
X58264976Y-115242758D01*
X58343995Y-115094924D01*
X58343996Y-115094922D01*
X58450341Y-114965341D01*
X58579922Y-114858996D01*
X58595094Y-114850886D01*
X58727758Y-114779976D01*
X58888177Y-114731313D01*
X59013196Y-114719000D01*
X59096804Y-114719000D01*
X59221823Y-114731313D01*
X59221823Y-114731313D01*
G37*
G36*
X100601880Y-115455800D02*
G01*
X98899880Y-115455800D01*
X98899880Y-113753800D01*
X100601880Y-113753800D01*
X100601880Y-115455800D01*
X100601880Y-115455800D01*
G37*
G36*
X84677703Y-113766113D02*
G01*
X84838122Y-113814776D01*
X84938980Y-113868686D01*
X84985958Y-113893796D01*
X85115539Y-114000141D01*
X85221884Y-114129722D01*
X85221885Y-114129724D01*
X85300904Y-114277558D01*
X85349567Y-114437977D01*
X85365997Y-114604800D01*
X85349567Y-114771623D01*
X85300904Y-114932042D01*
X85283105Y-114965341D01*
X85221884Y-115079878D01*
X85115539Y-115209459D01*
X84985958Y-115315804D01*
X84985956Y-115315805D01*
X84838122Y-115394824D01*
X84677703Y-115443487D01*
X84552684Y-115455800D01*
X84469076Y-115455800D01*
X84344057Y-115443487D01*
X84183638Y-115394824D01*
X84035804Y-115315805D01*
X84035802Y-115315804D01*
X83906221Y-115209459D01*
X83799876Y-115079878D01*
X83738655Y-114965341D01*
X83720856Y-114932042D01*
X83672193Y-114771623D01*
X83655763Y-114604800D01*
X83672193Y-114437977D01*
X83720856Y-114277558D01*
X83799875Y-114129724D01*
X83799876Y-114129722D01*
X83906221Y-114000141D01*
X84035802Y-113893796D01*
X84082780Y-113868686D01*
X84183638Y-113814776D01*
X84344057Y-113766113D01*
X84469076Y-113753800D01*
X84552684Y-113753800D01*
X84677703Y-113766113D01*
X84677703Y-113766113D01*
G37*
G36*
X59221823Y-112191313D02*
G01*
X59382242Y-112239976D01*
X59514906Y-112310886D01*
X59530078Y-112318996D01*
X59659659Y-112425341D01*
X59766004Y-112554922D01*
X59766005Y-112554924D01*
X59845024Y-112702758D01*
X59893687Y-112863177D01*
X59910117Y-113030000D01*
X59893687Y-113196823D01*
X59845024Y-113357242D01*
X59774114Y-113489906D01*
X59766004Y-113505078D01*
X59659659Y-113634659D01*
X59530078Y-113741004D01*
X59530076Y-113741005D01*
X59382242Y-113820024D01*
X59221823Y-113868687D01*
X59096804Y-113881000D01*
X59013196Y-113881000D01*
X58888177Y-113868687D01*
X58727758Y-113820024D01*
X58579924Y-113741005D01*
X58579922Y-113741004D01*
X58450341Y-113634659D01*
X58343996Y-113505078D01*
X58335886Y-113489906D01*
X58264976Y-113357242D01*
X58216313Y-113196823D01*
X58199883Y-113030000D01*
X58216313Y-112863177D01*
X58264976Y-112702758D01*
X58343995Y-112554924D01*
X58343996Y-112554922D01*
X58450341Y-112425341D01*
X58579922Y-112318996D01*
X58595094Y-112310886D01*
X58727758Y-112239976D01*
X58888177Y-112191313D01*
X59013196Y-112179000D01*
X59096804Y-112179000D01*
X59221823Y-112191313D01*
X59221823Y-112191313D01*
G37*
G36*
X66841823Y-112191313D02*
G01*
X67002242Y-112239976D01*
X67134906Y-112310886D01*
X67150078Y-112318996D01*
X67279659Y-112425341D01*
X67386004Y-112554922D01*
X67386005Y-112554924D01*
X67465024Y-112702758D01*
X67513687Y-112863177D01*
X67530117Y-113030000D01*
X67513687Y-113196823D01*
X67465024Y-113357242D01*
X67394114Y-113489906D01*
X67386004Y-113505078D01*
X67279659Y-113634659D01*
X67150078Y-113741004D01*
X67150076Y-113741005D01*
X67002242Y-113820024D01*
X66841823Y-113868687D01*
X66716804Y-113881000D01*
X66633196Y-113881000D01*
X66508177Y-113868687D01*
X66347758Y-113820024D01*
X66199924Y-113741005D01*
X66199922Y-113741004D01*
X66070341Y-113634659D01*
X65963996Y-113505078D01*
X65955886Y-113489906D01*
X65884976Y-113357242D01*
X65836313Y-113196823D01*
X65819883Y-113030000D01*
X65836313Y-112863177D01*
X65884976Y-112702758D01*
X65963995Y-112554924D01*
X65963996Y-112554922D01*
X66070341Y-112425341D01*
X66199922Y-112318996D01*
X66215094Y-112310886D01*
X66347758Y-112239976D01*
X66508177Y-112191313D01*
X66633196Y-112179000D01*
X66716804Y-112179000D01*
X66841823Y-112191313D01*
X66841823Y-112191313D01*
G37*
G36*
X99917703Y-111226113D02*
G01*
X100078122Y-111274776D01*
X100178980Y-111328686D01*
X100225958Y-111353796D01*
X100355539Y-111460141D01*
X100461884Y-111589722D01*
X100461885Y-111589724D01*
X100540904Y-111737558D01*
X100589567Y-111897977D01*
X100605997Y-112064800D01*
X100589567Y-112231623D01*
X100540904Y-112392042D01*
X100523105Y-112425341D01*
X100461884Y-112539878D01*
X100355539Y-112669459D01*
X100225958Y-112775804D01*
X100225956Y-112775805D01*
X100078122Y-112854824D01*
X99917703Y-112903487D01*
X99792684Y-112915800D01*
X99709076Y-112915800D01*
X99584057Y-112903487D01*
X99423638Y-112854824D01*
X99275804Y-112775805D01*
X99275802Y-112775804D01*
X99146221Y-112669459D01*
X99039876Y-112539878D01*
X98978655Y-112425341D01*
X98960856Y-112392042D01*
X98912193Y-112231623D01*
X98895763Y-112064800D01*
X98912193Y-111897977D01*
X98960856Y-111737558D01*
X99039875Y-111589724D01*
X99039876Y-111589722D01*
X99146221Y-111460141D01*
X99275802Y-111353796D01*
X99322780Y-111328686D01*
X99423638Y-111274776D01*
X99584057Y-111226113D01*
X99709076Y-111213800D01*
X99792684Y-111213800D01*
X99917703Y-111226113D01*
X99917703Y-111226113D01*
G37*
G36*
X84677703Y-111226113D02*
G01*
X84838122Y-111274776D01*
X84938980Y-111328686D01*
X84985958Y-111353796D01*
X85115539Y-111460141D01*
X85221884Y-111589722D01*
X85221885Y-111589724D01*
X85300904Y-111737558D01*
X85349567Y-111897977D01*
X85365997Y-112064800D01*
X85349567Y-112231623D01*
X85300904Y-112392042D01*
X85283105Y-112425341D01*
X85221884Y-112539878D01*
X85115539Y-112669459D01*
X84985958Y-112775804D01*
X84985956Y-112775805D01*
X84838122Y-112854824D01*
X84677703Y-112903487D01*
X84552684Y-112915800D01*
X84469076Y-112915800D01*
X84344057Y-112903487D01*
X84183638Y-112854824D01*
X84035804Y-112775805D01*
X84035802Y-112775804D01*
X83906221Y-112669459D01*
X83799876Y-112539878D01*
X83738655Y-112425341D01*
X83720856Y-112392042D01*
X83672193Y-112231623D01*
X83655763Y-112064800D01*
X83672193Y-111897977D01*
X83720856Y-111737558D01*
X83799875Y-111589724D01*
X83799876Y-111589722D01*
X83906221Y-111460141D01*
X84035802Y-111353796D01*
X84082780Y-111328686D01*
X84183638Y-111274776D01*
X84344057Y-111226113D01*
X84469076Y-111213800D01*
X84552684Y-111213800D01*
X84677703Y-111226113D01*
X84677703Y-111226113D01*
G37*
G36*
X107690228Y-110655703D02*
G01*
X107845100Y-110719853D01*
X107984481Y-110812985D01*
X108103015Y-110931519D01*
X108196147Y-111070900D01*
X108260297Y-111225772D01*
X108293000Y-111390184D01*
X108293000Y-111557816D01*
X108260297Y-111722228D01*
X108196147Y-111877100D01*
X108103015Y-112016481D01*
X107984481Y-112135015D01*
X107845100Y-112228147D01*
X107690228Y-112292297D01*
X107525816Y-112325000D01*
X107358184Y-112325000D01*
X107193772Y-112292297D01*
X107038900Y-112228147D01*
X106899519Y-112135015D01*
X106780985Y-112016481D01*
X106687853Y-111877100D01*
X106623703Y-111722228D01*
X106591000Y-111557816D01*
X106591000Y-111390184D01*
X106623703Y-111225772D01*
X106687853Y-111070900D01*
X106780985Y-110931519D01*
X106899519Y-110812985D01*
X107038900Y-110719853D01*
X107193772Y-110655703D01*
X107358184Y-110623000D01*
X107525816Y-110623000D01*
X107690228Y-110655703D01*
X107690228Y-110655703D01*
G37*
G36*
X66841823Y-109651313D02*
G01*
X67002242Y-109699976D01*
X67134906Y-109770886D01*
X67150078Y-109778996D01*
X67279659Y-109885341D01*
X67386004Y-110014922D01*
X67386005Y-110014924D01*
X67465024Y-110162758D01*
X67513687Y-110323177D01*
X67530117Y-110490000D01*
X67513687Y-110656823D01*
X67465024Y-110817242D01*
X67403942Y-110931519D01*
X67386004Y-110965078D01*
X67279659Y-111094659D01*
X67150078Y-111201004D01*
X67150076Y-111201005D01*
X67002242Y-111280024D01*
X66841823Y-111328687D01*
X66716804Y-111341000D01*
X66633196Y-111341000D01*
X66508177Y-111328687D01*
X66347758Y-111280024D01*
X66199924Y-111201005D01*
X66199922Y-111201004D01*
X66070341Y-111094659D01*
X65963996Y-110965078D01*
X65946058Y-110931519D01*
X65884976Y-110817242D01*
X65836313Y-110656823D01*
X65819883Y-110490000D01*
X65836313Y-110323177D01*
X65884976Y-110162758D01*
X65963995Y-110014924D01*
X65963996Y-110014922D01*
X66070341Y-109885341D01*
X66199922Y-109778996D01*
X66215094Y-109770886D01*
X66347758Y-109699976D01*
X66508177Y-109651313D01*
X66633196Y-109639000D01*
X66716804Y-109639000D01*
X66841823Y-109651313D01*
X66841823Y-109651313D01*
G37*
G36*
X59221823Y-109651313D02*
G01*
X59382242Y-109699976D01*
X59514906Y-109770886D01*
X59530078Y-109778996D01*
X59659659Y-109885341D01*
X59766004Y-110014922D01*
X59766005Y-110014924D01*
X59845024Y-110162758D01*
X59893687Y-110323177D01*
X59910117Y-110490000D01*
X59893687Y-110656823D01*
X59845024Y-110817242D01*
X59783942Y-110931519D01*
X59766004Y-110965078D01*
X59659659Y-111094659D01*
X59530078Y-111201004D01*
X59530076Y-111201005D01*
X59382242Y-111280024D01*
X59221823Y-111328687D01*
X59096804Y-111341000D01*
X59013196Y-111341000D01*
X58888177Y-111328687D01*
X58727758Y-111280024D01*
X58579924Y-111201005D01*
X58579922Y-111201004D01*
X58450341Y-111094659D01*
X58343996Y-110965078D01*
X58326058Y-110931519D01*
X58264976Y-110817242D01*
X58216313Y-110656823D01*
X58199883Y-110490000D01*
X58216313Y-110323177D01*
X58264976Y-110162758D01*
X58343995Y-110014924D01*
X58343996Y-110014922D01*
X58450341Y-109885341D01*
X58579922Y-109778996D01*
X58595094Y-109770886D01*
X58727758Y-109699976D01*
X58888177Y-109651313D01*
X59013196Y-109639000D01*
X59096804Y-109639000D01*
X59221823Y-109651313D01*
X59221823Y-109651313D01*
G37*
G36*
X84677703Y-108686113D02*
G01*
X84838122Y-108734776D01*
X84970786Y-108805686D01*
X84985958Y-108813796D01*
X85115539Y-108920141D01*
X85221884Y-109049722D01*
X85221885Y-109049724D01*
X85300904Y-109197558D01*
X85349567Y-109357977D01*
X85365997Y-109524800D01*
X85349567Y-109691623D01*
X85300904Y-109852042D01*
X85283105Y-109885341D01*
X85221884Y-109999878D01*
X85115539Y-110129459D01*
X84985958Y-110235804D01*
X84985956Y-110235805D01*
X84838122Y-110314824D01*
X84677703Y-110363487D01*
X84552684Y-110375800D01*
X84469076Y-110375800D01*
X84344057Y-110363487D01*
X84183638Y-110314824D01*
X84035804Y-110235805D01*
X84035802Y-110235804D01*
X83906221Y-110129459D01*
X83799876Y-109999878D01*
X83738655Y-109885341D01*
X83720856Y-109852042D01*
X83672193Y-109691623D01*
X83655763Y-109524800D01*
X83672193Y-109357977D01*
X83720856Y-109197558D01*
X83799875Y-109049724D01*
X83799876Y-109049722D01*
X83906221Y-108920141D01*
X84035802Y-108813796D01*
X84050974Y-108805686D01*
X84183638Y-108734776D01*
X84344057Y-108686113D01*
X84469076Y-108673800D01*
X84552684Y-108673800D01*
X84677703Y-108686113D01*
X84677703Y-108686113D01*
G37*
G36*
X99917703Y-108686113D02*
G01*
X100078122Y-108734776D01*
X100210786Y-108805686D01*
X100225958Y-108813796D01*
X100355539Y-108920141D01*
X100461884Y-109049722D01*
X100461885Y-109049724D01*
X100540904Y-109197558D01*
X100589567Y-109357977D01*
X100605997Y-109524800D01*
X100589567Y-109691623D01*
X100540904Y-109852042D01*
X100523105Y-109885341D01*
X100461884Y-109999878D01*
X100355539Y-110129459D01*
X100225958Y-110235804D01*
X100225956Y-110235805D01*
X100078122Y-110314824D01*
X99917703Y-110363487D01*
X99792684Y-110375800D01*
X99709076Y-110375800D01*
X99584057Y-110363487D01*
X99423638Y-110314824D01*
X99275804Y-110235805D01*
X99275802Y-110235804D01*
X99146221Y-110129459D01*
X99039876Y-109999878D01*
X98978655Y-109885341D01*
X98960856Y-109852042D01*
X98912193Y-109691623D01*
X98895763Y-109524800D01*
X98912193Y-109357977D01*
X98960856Y-109197558D01*
X99039875Y-109049724D01*
X99039876Y-109049722D01*
X99146221Y-108920141D01*
X99275802Y-108813796D01*
X99290974Y-108805686D01*
X99423638Y-108734776D01*
X99584057Y-108686113D01*
X99709076Y-108673800D01*
X99792684Y-108673800D01*
X99917703Y-108686113D01*
X99917703Y-108686113D01*
G37*
G36*
X108293000Y-110325000D02*
G01*
X106591000Y-110325000D01*
X106591000Y-108623000D01*
X108293000Y-108623000D01*
X108293000Y-110325000D01*
X108293000Y-110325000D01*
G37*
G36*
X39003097Y-106904069D02*
G01*
X39106032Y-106914207D01*
X39304146Y-106974305D01*
X39304149Y-106974306D01*
X39400975Y-107026061D01*
X39486729Y-107071897D01*
X39646765Y-107203235D01*
X39778103Y-107363271D01*
X39823939Y-107449025D01*
X39875694Y-107545851D01*
X39875695Y-107545854D01*
X39935793Y-107743968D01*
X39956085Y-107950000D01*
X39935793Y-108156032D01*
X39875695Y-108354146D01*
X39875694Y-108354149D01*
X39850937Y-108400466D01*
X39778103Y-108536729D01*
X39646765Y-108696765D01*
X39486729Y-108828103D01*
X39400975Y-108873939D01*
X39304149Y-108925694D01*
X39304146Y-108925695D01*
X39106032Y-108985793D01*
X39003097Y-108995931D01*
X38951631Y-109001000D01*
X37248369Y-109001000D01*
X37196903Y-108995931D01*
X37093968Y-108985793D01*
X36895854Y-108925695D01*
X36895851Y-108925694D01*
X36799025Y-108873939D01*
X36713271Y-108828103D01*
X36553235Y-108696765D01*
X36421897Y-108536729D01*
X36349063Y-108400466D01*
X36324306Y-108354149D01*
X36324305Y-108354146D01*
X36264207Y-108156032D01*
X36243915Y-107950000D01*
X36264207Y-107743968D01*
X36324305Y-107545854D01*
X36324306Y-107545851D01*
X36376061Y-107449025D01*
X36421897Y-107363271D01*
X36553235Y-107203235D01*
X36713271Y-107071897D01*
X36799025Y-107026061D01*
X36895851Y-106974306D01*
X36895854Y-106974305D01*
X37093968Y-106914207D01*
X37196903Y-106904069D01*
X37248369Y-106899000D01*
X38951631Y-106899000D01*
X39003097Y-106904069D01*
X39003097Y-106904069D01*
G37*
G36*
X54887395Y-107035546D02*
G01*
X55060466Y-107107234D01*
X55060467Y-107107235D01*
X55216227Y-107211310D01*
X55348690Y-107343773D01*
X55401081Y-107422182D01*
X55452766Y-107499534D01*
X55524454Y-107672605D01*
X55561000Y-107856333D01*
X55561000Y-108043667D01*
X55524454Y-108227395D01*
X55452766Y-108400466D01*
X55452765Y-108400467D01*
X55348690Y-108556227D01*
X55216227Y-108688690D01*
X55147256Y-108734775D01*
X55060466Y-108792766D01*
X54887395Y-108864454D01*
X54703667Y-108901000D01*
X54516333Y-108901000D01*
X54332605Y-108864454D01*
X54159534Y-108792766D01*
X54072744Y-108734775D01*
X54003773Y-108688690D01*
X53871310Y-108556227D01*
X53767235Y-108400467D01*
X53767234Y-108400466D01*
X53695546Y-108227395D01*
X53659000Y-108043667D01*
X53659000Y-107856333D01*
X53695546Y-107672605D01*
X53767234Y-107499534D01*
X53818919Y-107422182D01*
X53871310Y-107343773D01*
X54003773Y-107211310D01*
X54159533Y-107107235D01*
X54159534Y-107107234D01*
X54332605Y-107035546D01*
X54516333Y-106999000D01*
X54703667Y-106999000D01*
X54887395Y-107035546D01*
X54887395Y-107035546D01*
G37*
G36*
X47941000Y-108901000D02*
G01*
X46039000Y-108901000D01*
X46039000Y-106999000D01*
X47941000Y-106999000D01*
X47941000Y-108901000D01*
X47941000Y-108901000D01*
G37*
G36*
X53021000Y-108901000D02*
G01*
X51119000Y-108901000D01*
X51119000Y-106999000D01*
X53021000Y-106999000D01*
X53021000Y-108901000D01*
X53021000Y-108901000D01*
G37*
G36*
X84677703Y-106146113D02*
G01*
X84838122Y-106194776D01*
X84962018Y-106261000D01*
X84985958Y-106273796D01*
X85115539Y-106380141D01*
X85221884Y-106509722D01*
X85221885Y-106509724D01*
X85300904Y-106657558D01*
X85349567Y-106817977D01*
X85365997Y-106984800D01*
X85349567Y-107151623D01*
X85300904Y-107312042D01*
X85273521Y-107363272D01*
X85221884Y-107459878D01*
X85115539Y-107589459D01*
X84985958Y-107695804D01*
X84985956Y-107695805D01*
X84838122Y-107774824D01*
X84677703Y-107823487D01*
X84552684Y-107835800D01*
X84469076Y-107835800D01*
X84344057Y-107823487D01*
X84183638Y-107774824D01*
X84035804Y-107695805D01*
X84035802Y-107695804D01*
X83906221Y-107589459D01*
X83799876Y-107459878D01*
X83748239Y-107363272D01*
X83720856Y-107312042D01*
X83672193Y-107151623D01*
X83655763Y-106984800D01*
X83672193Y-106817977D01*
X83720856Y-106657558D01*
X83799875Y-106509724D01*
X83799876Y-106509722D01*
X83906221Y-106380141D01*
X84035802Y-106273796D01*
X84059742Y-106261000D01*
X84183638Y-106194776D01*
X84344057Y-106146113D01*
X84469076Y-106133800D01*
X84552684Y-106133800D01*
X84677703Y-106146113D01*
X84677703Y-106146113D01*
G37*
G36*
X99917703Y-106146113D02*
G01*
X100078122Y-106194776D01*
X100202018Y-106261000D01*
X100225958Y-106273796D01*
X100355539Y-106380141D01*
X100461884Y-106509722D01*
X100461885Y-106509724D01*
X100540904Y-106657558D01*
X100589567Y-106817977D01*
X100605997Y-106984800D01*
X100589567Y-107151623D01*
X100540904Y-107312042D01*
X100513521Y-107363272D01*
X100461884Y-107459878D01*
X100355539Y-107589459D01*
X100225958Y-107695804D01*
X100225956Y-107695805D01*
X100078122Y-107774824D01*
X99917703Y-107823487D01*
X99792684Y-107835800D01*
X99709076Y-107835800D01*
X99584057Y-107823487D01*
X99423638Y-107774824D01*
X99275804Y-107695805D01*
X99275802Y-107695804D01*
X99146221Y-107589459D01*
X99039876Y-107459878D01*
X98988239Y-107363272D01*
X98960856Y-107312042D01*
X98912193Y-107151623D01*
X98895763Y-106984800D01*
X98912193Y-106817977D01*
X98960856Y-106657558D01*
X99039875Y-106509724D01*
X99039876Y-106509722D01*
X99146221Y-106380141D01*
X99275802Y-106273796D01*
X99299742Y-106261000D01*
X99423638Y-106194776D01*
X99584057Y-106146113D01*
X99709076Y-106133800D01*
X99792684Y-106133800D01*
X99917703Y-106146113D01*
X99917703Y-106146113D01*
G37*
G36*
X64478228Y-105226703D02*
G01*
X64633100Y-105290853D01*
X64772481Y-105383985D01*
X64891015Y-105502519D01*
X64984147Y-105641900D01*
X65048297Y-105796772D01*
X65081000Y-105961184D01*
X65081000Y-106128816D01*
X65048297Y-106293228D01*
X64984147Y-106448100D01*
X64891015Y-106587481D01*
X64772481Y-106706015D01*
X64633100Y-106799147D01*
X64478228Y-106863297D01*
X64313816Y-106896000D01*
X64146184Y-106896000D01*
X63981772Y-106863297D01*
X63826900Y-106799147D01*
X63687519Y-106706015D01*
X63568985Y-106587481D01*
X63475853Y-106448100D01*
X63411703Y-106293228D01*
X63379000Y-106128816D01*
X63379000Y-105961184D01*
X63411703Y-105796772D01*
X63475853Y-105641900D01*
X63568985Y-105502519D01*
X63687519Y-105383985D01*
X63826900Y-105290853D01*
X63981772Y-105226703D01*
X64146184Y-105194000D01*
X64313816Y-105194000D01*
X64478228Y-105226703D01*
X64478228Y-105226703D01*
G37*
G36*
X63081000Y-106896000D02*
G01*
X61379000Y-106896000D01*
X61379000Y-105194000D01*
X63081000Y-105194000D01*
X63081000Y-106896000D01*
X63081000Y-106896000D01*
G37*
G36*
X47176425Y-104472760D02*
G01*
X47176428Y-104472761D01*
X47176429Y-104472761D01*
X47355693Y-104527140D01*
X47355696Y-104527142D01*
X47355697Y-104527142D01*
X47520903Y-104615446D01*
X47665712Y-104734288D01*
X47784554Y-104879097D01*
X47872858Y-105044303D01*
X47872860Y-105044307D01*
X47927239Y-105223571D01*
X47927240Y-105223575D01*
X47945601Y-105410000D01*
X47927240Y-105596425D01*
X47927239Y-105596428D01*
X47927239Y-105596429D01*
X47872860Y-105775693D01*
X47872858Y-105775696D01*
X47872858Y-105775697D01*
X47784554Y-105940903D01*
X47665712Y-106085712D01*
X47520903Y-106204554D01*
X47355697Y-106292858D01*
X47355693Y-106292860D01*
X47176429Y-106347239D01*
X47176428Y-106347239D01*
X47176425Y-106347240D01*
X47036718Y-106361000D01*
X46943282Y-106361000D01*
X46803575Y-106347240D01*
X46803572Y-106347239D01*
X46803571Y-106347239D01*
X46624307Y-106292860D01*
X46624303Y-106292858D01*
X46459097Y-106204554D01*
X46314288Y-106085712D01*
X46195446Y-105940903D01*
X46107142Y-105775697D01*
X46107142Y-105775696D01*
X46107140Y-105775693D01*
X46052761Y-105596429D01*
X46052761Y-105596428D01*
X46052760Y-105596425D01*
X46034399Y-105410000D01*
X46052760Y-105223575D01*
X46052761Y-105223571D01*
X46107140Y-105044307D01*
X46107142Y-105044303D01*
X46195446Y-104879097D01*
X46314288Y-104734288D01*
X46459097Y-104615446D01*
X46624303Y-104527142D01*
X46624304Y-104527142D01*
X46624307Y-104527140D01*
X46803571Y-104472761D01*
X46803572Y-104472761D01*
X46803575Y-104472760D01*
X46943282Y-104459000D01*
X47036718Y-104459000D01*
X47176425Y-104472760D01*
X47176425Y-104472760D01*
G37*
G36*
X108293000Y-106261000D02*
G01*
X106591000Y-106261000D01*
X106591000Y-104559000D01*
X108293000Y-104559000D01*
X108293000Y-106261000D01*
X108293000Y-106261000D01*
G37*
G36*
X99917703Y-103606113D02*
G01*
X100078122Y-103654776D01*
X100210786Y-103725686D01*
X100225958Y-103733796D01*
X100355539Y-103840141D01*
X100461884Y-103969722D01*
X100461885Y-103969724D01*
X100540904Y-104117558D01*
X100589567Y-104277977D01*
X100605997Y-104444800D01*
X100589567Y-104611623D01*
X100540904Y-104772042D01*
X100483682Y-104879097D01*
X100461884Y-104919878D01*
X100355539Y-105049459D01*
X100225958Y-105155804D01*
X100225956Y-105155805D01*
X100078122Y-105234824D01*
X99917703Y-105283487D01*
X99792684Y-105295800D01*
X99709076Y-105295800D01*
X99584057Y-105283487D01*
X99423638Y-105234824D01*
X99275804Y-105155805D01*
X99275802Y-105155804D01*
X99146221Y-105049459D01*
X99039876Y-104919878D01*
X99018078Y-104879097D01*
X98960856Y-104772042D01*
X98912193Y-104611623D01*
X98895763Y-104444800D01*
X98912193Y-104277977D01*
X98960856Y-104117558D01*
X99039875Y-103969724D01*
X99039876Y-103969722D01*
X99146221Y-103840141D01*
X99275802Y-103733796D01*
X99290974Y-103725686D01*
X99423638Y-103654776D01*
X99584057Y-103606113D01*
X99709076Y-103593800D01*
X99792684Y-103593800D01*
X99917703Y-103606113D01*
X99917703Y-103606113D01*
G37*
G36*
X84677703Y-103606113D02*
G01*
X84838122Y-103654776D01*
X84970786Y-103725686D01*
X84985958Y-103733796D01*
X85115539Y-103840141D01*
X85221884Y-103969722D01*
X85221885Y-103969724D01*
X85300904Y-104117558D01*
X85349567Y-104277977D01*
X85365997Y-104444800D01*
X85349567Y-104611623D01*
X85300904Y-104772042D01*
X85243682Y-104879097D01*
X85221884Y-104919878D01*
X85115539Y-105049459D01*
X84985958Y-105155804D01*
X84985956Y-105155805D01*
X84838122Y-105234824D01*
X84677703Y-105283487D01*
X84552684Y-105295800D01*
X84469076Y-105295800D01*
X84344057Y-105283487D01*
X84183638Y-105234824D01*
X84035804Y-105155805D01*
X84035802Y-105155804D01*
X83906221Y-105049459D01*
X83799876Y-104919878D01*
X83778078Y-104879097D01*
X83720856Y-104772042D01*
X83672193Y-104611623D01*
X83655763Y-104444800D01*
X83672193Y-104277977D01*
X83720856Y-104117558D01*
X83799875Y-103969724D01*
X83799876Y-103969722D01*
X83906221Y-103840141D01*
X84035802Y-103733796D01*
X84050974Y-103725686D01*
X84183638Y-103654776D01*
X84344057Y-103606113D01*
X84469076Y-103593800D01*
X84552684Y-103593800D01*
X84677703Y-103606113D01*
X84677703Y-103606113D01*
G37*
G36*
X107690228Y-102591703D02*
G01*
X107845100Y-102655853D01*
X107984481Y-102748985D01*
X108103015Y-102867519D01*
X108196147Y-103006900D01*
X108260297Y-103161772D01*
X108293000Y-103326184D01*
X108293000Y-103493816D01*
X108260297Y-103658228D01*
X108196147Y-103813100D01*
X108103015Y-103952481D01*
X107984481Y-104071015D01*
X107845100Y-104164147D01*
X107690228Y-104228297D01*
X107525816Y-104261000D01*
X107358184Y-104261000D01*
X107193772Y-104228297D01*
X107038900Y-104164147D01*
X106899519Y-104071015D01*
X106780985Y-103952481D01*
X106687853Y-103813100D01*
X106623703Y-103658228D01*
X106591000Y-103493816D01*
X106591000Y-103326184D01*
X106623703Y-103161772D01*
X106687853Y-103006900D01*
X106780985Y-102867519D01*
X106899519Y-102748985D01*
X107038900Y-102655853D01*
X107193772Y-102591703D01*
X107358184Y-102559000D01*
X107525816Y-102559000D01*
X107690228Y-102591703D01*
X107690228Y-102591703D01*
G37*
G36*
X39951000Y-104001000D02*
G01*
X36249000Y-104001000D01*
X36249000Y-101899000D01*
X39951000Y-101899000D01*
X39951000Y-104001000D01*
X39951000Y-104001000D01*
G37*
G36*
X47176425Y-101932760D02*
G01*
X47176428Y-101932761D01*
X47176429Y-101932761D01*
X47355693Y-101987140D01*
X47355696Y-101987142D01*
X47355697Y-101987142D01*
X47520903Y-102075446D01*
X47665712Y-102194288D01*
X47784554Y-102339097D01*
X47844367Y-102451000D01*
X47872860Y-102504307D01*
X47918831Y-102655853D01*
X47927240Y-102683575D01*
X47945601Y-102870000D01*
X47927240Y-103056425D01*
X47927239Y-103056428D01*
X47927239Y-103056429D01*
X47872860Y-103235693D01*
X47872858Y-103235696D01*
X47872858Y-103235697D01*
X47784554Y-103400903D01*
X47665712Y-103545712D01*
X47520903Y-103664554D01*
X47355697Y-103752858D01*
X47355693Y-103752860D01*
X47176429Y-103807239D01*
X47176428Y-103807239D01*
X47176425Y-103807240D01*
X47036718Y-103821000D01*
X46943282Y-103821000D01*
X46803575Y-103807240D01*
X46803572Y-103807239D01*
X46803571Y-103807239D01*
X46624307Y-103752860D01*
X46624303Y-103752858D01*
X46459097Y-103664554D01*
X46314288Y-103545712D01*
X46195446Y-103400903D01*
X46107142Y-103235697D01*
X46107142Y-103235696D01*
X46107140Y-103235693D01*
X46052761Y-103056429D01*
X46052761Y-103056428D01*
X46052760Y-103056425D01*
X46034399Y-102870000D01*
X46052760Y-102683575D01*
X46061169Y-102655853D01*
X46107140Y-102504307D01*
X46135633Y-102451000D01*
X46195446Y-102339097D01*
X46314288Y-102194288D01*
X46459097Y-102075446D01*
X46624303Y-101987142D01*
X46624304Y-101987142D01*
X46624307Y-101987140D01*
X46803571Y-101932761D01*
X46803572Y-101932761D01*
X46803575Y-101932760D01*
X46943282Y-101919000D01*
X47036718Y-101919000D01*
X47176425Y-101932760D01*
X47176425Y-101932760D01*
G37*
G36*
X99917703Y-101066113D02*
G01*
X100078122Y-101114776D01*
X100210786Y-101185686D01*
X100225958Y-101193796D01*
X100355539Y-101300141D01*
X100461884Y-101429722D01*
X100461885Y-101429724D01*
X100540904Y-101577558D01*
X100589567Y-101737977D01*
X100605997Y-101904800D01*
X100589567Y-102071623D01*
X100540904Y-102232042D01*
X100498698Y-102311004D01*
X100461884Y-102379878D01*
X100355539Y-102509459D01*
X100225958Y-102615804D01*
X100225956Y-102615805D01*
X100078122Y-102694824D01*
X99917703Y-102743487D01*
X99792684Y-102755800D01*
X99709076Y-102755800D01*
X99584057Y-102743487D01*
X99423638Y-102694824D01*
X99275804Y-102615805D01*
X99275802Y-102615804D01*
X99146221Y-102509459D01*
X99039876Y-102379878D01*
X99003062Y-102311004D01*
X98960856Y-102232042D01*
X98912193Y-102071623D01*
X98895763Y-101904800D01*
X98912193Y-101737977D01*
X98960856Y-101577558D01*
X99039875Y-101429724D01*
X99039876Y-101429722D01*
X99146221Y-101300141D01*
X99275802Y-101193796D01*
X99290974Y-101185686D01*
X99423638Y-101114776D01*
X99584057Y-101066113D01*
X99709076Y-101053800D01*
X99792684Y-101053800D01*
X99917703Y-101066113D01*
X99917703Y-101066113D01*
G37*
G36*
X84677703Y-101066113D02*
G01*
X84838122Y-101114776D01*
X84970786Y-101185686D01*
X84985958Y-101193796D01*
X85115539Y-101300141D01*
X85221884Y-101429722D01*
X85221885Y-101429724D01*
X85300904Y-101577558D01*
X85349567Y-101737977D01*
X85365997Y-101904800D01*
X85349567Y-102071623D01*
X85300904Y-102232042D01*
X85258698Y-102311004D01*
X85221884Y-102379878D01*
X85115539Y-102509459D01*
X84985958Y-102615804D01*
X84985956Y-102615805D01*
X84838122Y-102694824D01*
X84677703Y-102743487D01*
X84552684Y-102755800D01*
X84469076Y-102755800D01*
X84344057Y-102743487D01*
X84183638Y-102694824D01*
X84035804Y-102615805D01*
X84035802Y-102615804D01*
X83906221Y-102509459D01*
X83799876Y-102379878D01*
X83763062Y-102311004D01*
X83720856Y-102232042D01*
X83672193Y-102071623D01*
X83655763Y-101904800D01*
X83672193Y-101737977D01*
X83720856Y-101577558D01*
X83799875Y-101429724D01*
X83799876Y-101429722D01*
X83906221Y-101300141D01*
X84035802Y-101193796D01*
X84050974Y-101185686D01*
X84183638Y-101114776D01*
X84344057Y-101066113D01*
X84469076Y-101053800D01*
X84552684Y-101053800D01*
X84677703Y-101066113D01*
X84677703Y-101066113D01*
G37*
G36*
X68796000Y-102451000D02*
G01*
X67094000Y-102451000D01*
X67094000Y-100749000D01*
X68796000Y-100749000D01*
X68796000Y-102451000D01*
X68796000Y-102451000D01*
G37*
G36*
X60491823Y-100761313D02*
G01*
X60652242Y-100809976D01*
X60784906Y-100880886D01*
X60800078Y-100888996D01*
X60929659Y-100995341D01*
X61036004Y-101124922D01*
X61036005Y-101124924D01*
X61115024Y-101272758D01*
X61163687Y-101433177D01*
X61180117Y-101600000D01*
X61163687Y-101766823D01*
X61115024Y-101927242D01*
X61044114Y-102059906D01*
X61036004Y-102075078D01*
X60929659Y-102204659D01*
X60800078Y-102311004D01*
X60800076Y-102311005D01*
X60652242Y-102390024D01*
X60491823Y-102438687D01*
X60366804Y-102451000D01*
X60283196Y-102451000D01*
X60158177Y-102438687D01*
X59997758Y-102390024D01*
X59849924Y-102311005D01*
X59849922Y-102311004D01*
X59720341Y-102204659D01*
X59613996Y-102075078D01*
X59605886Y-102059906D01*
X59534976Y-101927242D01*
X59486313Y-101766823D01*
X59469883Y-101600000D01*
X59486313Y-101433177D01*
X59534976Y-101272758D01*
X59613995Y-101124924D01*
X59613996Y-101124922D01*
X59720341Y-100995341D01*
X59849922Y-100888996D01*
X59865094Y-100880886D01*
X59997758Y-100809976D01*
X60158177Y-100761313D01*
X60283196Y-100749000D01*
X60366804Y-100749000D01*
X60491823Y-100761313D01*
X60491823Y-100761313D01*
G37*
G36*
X99917703Y-98526113D02*
G01*
X100078122Y-98574776D01*
X100210786Y-98645686D01*
X100225958Y-98653796D01*
X100355539Y-98760141D01*
X100461884Y-98889722D01*
X100461885Y-98889724D01*
X100540904Y-99037558D01*
X100589567Y-99197977D01*
X100605997Y-99364800D01*
X100589567Y-99531623D01*
X100540904Y-99692042D01*
X100498698Y-99771004D01*
X100461884Y-99839878D01*
X100355539Y-99969459D01*
X100225958Y-100075804D01*
X100225956Y-100075805D01*
X100078122Y-100154824D01*
X99917703Y-100203487D01*
X99792684Y-100215800D01*
X99709076Y-100215800D01*
X99584057Y-100203487D01*
X99423638Y-100154824D01*
X99275804Y-100075805D01*
X99275802Y-100075804D01*
X99146221Y-99969459D01*
X99039876Y-99839878D01*
X99003062Y-99771004D01*
X98960856Y-99692042D01*
X98912193Y-99531623D01*
X98895763Y-99364800D01*
X98912193Y-99197977D01*
X98960856Y-99037558D01*
X99039875Y-98889724D01*
X99039876Y-98889722D01*
X99146221Y-98760141D01*
X99275802Y-98653796D01*
X99290974Y-98645686D01*
X99423638Y-98574776D01*
X99584057Y-98526113D01*
X99709076Y-98513800D01*
X99792684Y-98513800D01*
X99917703Y-98526113D01*
X99917703Y-98526113D01*
G37*
G36*
X84677703Y-98526113D02*
G01*
X84838122Y-98574776D01*
X84970786Y-98645686D01*
X84985958Y-98653796D01*
X85115539Y-98760141D01*
X85221884Y-98889722D01*
X85221885Y-98889724D01*
X85300904Y-99037558D01*
X85349567Y-99197977D01*
X85365997Y-99364800D01*
X85349567Y-99531623D01*
X85300904Y-99692042D01*
X85258698Y-99771004D01*
X85221884Y-99839878D01*
X85115539Y-99969459D01*
X84985958Y-100075804D01*
X84985956Y-100075805D01*
X84838122Y-100154824D01*
X84677703Y-100203487D01*
X84552684Y-100215800D01*
X84469076Y-100215800D01*
X84344057Y-100203487D01*
X84183638Y-100154824D01*
X84035804Y-100075805D01*
X84035802Y-100075804D01*
X83906221Y-99969459D01*
X83799876Y-99839878D01*
X83763062Y-99771004D01*
X83720856Y-99692042D01*
X83672193Y-99531623D01*
X83655763Y-99364800D01*
X83672193Y-99197977D01*
X83720856Y-99037558D01*
X83799875Y-98889724D01*
X83799876Y-98889722D01*
X83906221Y-98760141D01*
X84035802Y-98653796D01*
X84050974Y-98645686D01*
X84183638Y-98574776D01*
X84344057Y-98526113D01*
X84469076Y-98513800D01*
X84552684Y-98513800D01*
X84677703Y-98526113D01*
X84677703Y-98526113D01*
G37*
G36*
X68111823Y-98221313D02*
G01*
X68272242Y-98269976D01*
X68404906Y-98340886D01*
X68420078Y-98348996D01*
X68549659Y-98455341D01*
X68656004Y-98584922D01*
X68656005Y-98584924D01*
X68735024Y-98732758D01*
X68783687Y-98893177D01*
X68800117Y-99060000D01*
X68783687Y-99226823D01*
X68735024Y-99387242D01*
X68664114Y-99519906D01*
X68656004Y-99535078D01*
X68549659Y-99664659D01*
X68420078Y-99771004D01*
X68420076Y-99771005D01*
X68272242Y-99850024D01*
X68111823Y-99898687D01*
X67986804Y-99911000D01*
X67903196Y-99911000D01*
X67778177Y-99898687D01*
X67617758Y-99850024D01*
X67469924Y-99771005D01*
X67469922Y-99771004D01*
X67340341Y-99664659D01*
X67233996Y-99535078D01*
X67225886Y-99519906D01*
X67154976Y-99387242D01*
X67106313Y-99226823D01*
X67089883Y-99060000D01*
X67106313Y-98893177D01*
X67154976Y-98732758D01*
X67233995Y-98584924D01*
X67233996Y-98584922D01*
X67340341Y-98455341D01*
X67469922Y-98348996D01*
X67485094Y-98340886D01*
X67617758Y-98269976D01*
X67778177Y-98221313D01*
X67903196Y-98209000D01*
X67986804Y-98209000D01*
X68111823Y-98221313D01*
X68111823Y-98221313D01*
G37*
G36*
X60491823Y-98221313D02*
G01*
X60652242Y-98269976D01*
X60784906Y-98340886D01*
X60800078Y-98348996D01*
X60929659Y-98455341D01*
X61036004Y-98584922D01*
X61036005Y-98584924D01*
X61115024Y-98732758D01*
X61163687Y-98893177D01*
X61180117Y-99060000D01*
X61163687Y-99226823D01*
X61115024Y-99387242D01*
X61044114Y-99519906D01*
X61036004Y-99535078D01*
X60929659Y-99664659D01*
X60800078Y-99771004D01*
X60800076Y-99771005D01*
X60652242Y-99850024D01*
X60491823Y-99898687D01*
X60366804Y-99911000D01*
X60283196Y-99911000D01*
X60158177Y-99898687D01*
X59997758Y-99850024D01*
X59849924Y-99771005D01*
X59849922Y-99771004D01*
X59720341Y-99664659D01*
X59613996Y-99535078D01*
X59605886Y-99519906D01*
X59534976Y-99387242D01*
X59486313Y-99226823D01*
X59469883Y-99060000D01*
X59486313Y-98893177D01*
X59534976Y-98732758D01*
X59613995Y-98584924D01*
X59613996Y-98584922D01*
X59720341Y-98455341D01*
X59849922Y-98348996D01*
X59865094Y-98340886D01*
X59997758Y-98269976D01*
X60158177Y-98221313D01*
X60283196Y-98209000D01*
X60366804Y-98209000D01*
X60491823Y-98221313D01*
X60491823Y-98221313D01*
G37*
G36*
X107806442Y-96641518D02*
G01*
X107872627Y-96648037D01*
X108042466Y-96699557D01*
X108198991Y-96783222D01*
X108234729Y-96812552D01*
X108336186Y-96895814D01*
X108414813Y-96991623D01*
X108448778Y-97033009D01*
X108532443Y-97189534D01*
X108583963Y-97359373D01*
X108601359Y-97536000D01*
X108583963Y-97712627D01*
X108532443Y-97882466D01*
X108448778Y-98038991D01*
X108419448Y-98074729D01*
X108336186Y-98176186D01*
X108234729Y-98259448D01*
X108198991Y-98288778D01*
X108042466Y-98372443D01*
X107872627Y-98423963D01*
X107806443Y-98430481D01*
X107740260Y-98437000D01*
X107651740Y-98437000D01*
X107585558Y-98430482D01*
X107519373Y-98423963D01*
X107349534Y-98372443D01*
X107193009Y-98288778D01*
X107157271Y-98259448D01*
X107055814Y-98176186D01*
X106972552Y-98074729D01*
X106943222Y-98038991D01*
X106859557Y-97882466D01*
X106808037Y-97712627D01*
X106790641Y-97536000D01*
X106808037Y-97359373D01*
X106859557Y-97189534D01*
X106943222Y-97033009D01*
X106977187Y-96991623D01*
X107055814Y-96895814D01*
X107157271Y-96812552D01*
X107193009Y-96783222D01*
X107349534Y-96699557D01*
X107519373Y-96648037D01*
X107585557Y-96641519D01*
X107651740Y-96635000D01*
X107740260Y-96635000D01*
X107806442Y-96641518D01*
X107806442Y-96641518D01*
G37*
G36*
X84677703Y-95986113D02*
G01*
X84838122Y-96034776D01*
X84970786Y-96105686D01*
X84985958Y-96113796D01*
X85115539Y-96220141D01*
X85221884Y-96349722D01*
X85221885Y-96349724D01*
X85300904Y-96497558D01*
X85349567Y-96657977D01*
X85365997Y-96824800D01*
X85349567Y-96991623D01*
X85300904Y-97152042D01*
X85280865Y-97189532D01*
X85221884Y-97299878D01*
X85115539Y-97429459D01*
X84985958Y-97535804D01*
X84985956Y-97535805D01*
X84838122Y-97614824D01*
X84677703Y-97663487D01*
X84552684Y-97675800D01*
X84469076Y-97675800D01*
X84344057Y-97663487D01*
X84183638Y-97614824D01*
X84035804Y-97535805D01*
X84035802Y-97535804D01*
X83906221Y-97429459D01*
X83799876Y-97299878D01*
X83740895Y-97189532D01*
X83720856Y-97152042D01*
X83672193Y-96991623D01*
X83655763Y-96824800D01*
X83672193Y-96657977D01*
X83720856Y-96497558D01*
X83799875Y-96349724D01*
X83799876Y-96349722D01*
X83906221Y-96220141D01*
X84035802Y-96113796D01*
X84050974Y-96105686D01*
X84183638Y-96034776D01*
X84344057Y-95986113D01*
X84469076Y-95973800D01*
X84552684Y-95973800D01*
X84677703Y-95986113D01*
X84677703Y-95986113D01*
G37*
G36*
X99917703Y-95986113D02*
G01*
X100078122Y-96034776D01*
X100210786Y-96105686D01*
X100225958Y-96113796D01*
X100355539Y-96220141D01*
X100461884Y-96349722D01*
X100461885Y-96349724D01*
X100540904Y-96497558D01*
X100589567Y-96657977D01*
X100605997Y-96824800D01*
X100589567Y-96991623D01*
X100540904Y-97152042D01*
X100520865Y-97189532D01*
X100461884Y-97299878D01*
X100355539Y-97429459D01*
X100225958Y-97535804D01*
X100225956Y-97535805D01*
X100078122Y-97614824D01*
X99917703Y-97663487D01*
X99792684Y-97675800D01*
X99709076Y-97675800D01*
X99584057Y-97663487D01*
X99423638Y-97614824D01*
X99275804Y-97535805D01*
X99275802Y-97535804D01*
X99146221Y-97429459D01*
X99039876Y-97299878D01*
X98980895Y-97189532D01*
X98960856Y-97152042D01*
X98912193Y-96991623D01*
X98895763Y-96824800D01*
X98912193Y-96657977D01*
X98960856Y-96497558D01*
X99039875Y-96349724D01*
X99039876Y-96349722D01*
X99146221Y-96220141D01*
X99275802Y-96113796D01*
X99290974Y-96105686D01*
X99423638Y-96034776D01*
X99584057Y-95986113D01*
X99709076Y-95973800D01*
X99792684Y-95973800D01*
X99917703Y-95986113D01*
X99917703Y-95986113D01*
G37*
G36*
X60491823Y-95681313D02*
G01*
X60652242Y-95729976D01*
X60784906Y-95800886D01*
X60800078Y-95808996D01*
X60929659Y-95915341D01*
X61036004Y-96044922D01*
X61036005Y-96044924D01*
X61115024Y-96192758D01*
X61163687Y-96353177D01*
X61180117Y-96520000D01*
X61163687Y-96686823D01*
X61115024Y-96847242D01*
X61089061Y-96895815D01*
X61036004Y-96995078D01*
X60929659Y-97124659D01*
X60800078Y-97231004D01*
X60800076Y-97231005D01*
X60652242Y-97310024D01*
X60491823Y-97358687D01*
X60366804Y-97371000D01*
X60283196Y-97371000D01*
X60158177Y-97358687D01*
X59997758Y-97310024D01*
X59849924Y-97231005D01*
X59849922Y-97231004D01*
X59720341Y-97124659D01*
X59613996Y-96995078D01*
X59560939Y-96895815D01*
X59534976Y-96847242D01*
X59486313Y-96686823D01*
X59469883Y-96520000D01*
X59486313Y-96353177D01*
X59534976Y-96192758D01*
X59613995Y-96044924D01*
X59613996Y-96044922D01*
X59720341Y-95915341D01*
X59849922Y-95808996D01*
X59865094Y-95800886D01*
X59997758Y-95729976D01*
X60158177Y-95681313D01*
X60283196Y-95669000D01*
X60366804Y-95669000D01*
X60491823Y-95681313D01*
X60491823Y-95681313D01*
G37*
G36*
X68111823Y-95681313D02*
G01*
X68272242Y-95729976D01*
X68404906Y-95800886D01*
X68420078Y-95808996D01*
X68549659Y-95915341D01*
X68656004Y-96044922D01*
X68656005Y-96044924D01*
X68735024Y-96192758D01*
X68783687Y-96353177D01*
X68800117Y-96520000D01*
X68783687Y-96686823D01*
X68735024Y-96847242D01*
X68709061Y-96895815D01*
X68656004Y-96995078D01*
X68549659Y-97124659D01*
X68420078Y-97231004D01*
X68420076Y-97231005D01*
X68272242Y-97310024D01*
X68111823Y-97358687D01*
X67986804Y-97371000D01*
X67903196Y-97371000D01*
X67778177Y-97358687D01*
X67617758Y-97310024D01*
X67469924Y-97231005D01*
X67469922Y-97231004D01*
X67340341Y-97124659D01*
X67233996Y-96995078D01*
X67180939Y-96895815D01*
X67154976Y-96847242D01*
X67106313Y-96686823D01*
X67089883Y-96520000D01*
X67106313Y-96353177D01*
X67154976Y-96192758D01*
X67233995Y-96044924D01*
X67233996Y-96044922D01*
X67340341Y-95915341D01*
X67469922Y-95808996D01*
X67485094Y-95800886D01*
X67617758Y-95729976D01*
X67778177Y-95681313D01*
X67903196Y-95669000D01*
X67986804Y-95669000D01*
X68111823Y-95681313D01*
X68111823Y-95681313D01*
G37*
G36*
X107806442Y-94101518D02*
G01*
X107872627Y-94108037D01*
X108042466Y-94159557D01*
X108198991Y-94243222D01*
X108234729Y-94272552D01*
X108336186Y-94355814D01*
X108414813Y-94451623D01*
X108448778Y-94493009D01*
X108532443Y-94649534D01*
X108583963Y-94819373D01*
X108601359Y-94996000D01*
X108583963Y-95172627D01*
X108532443Y-95342466D01*
X108448778Y-95498991D01*
X108419448Y-95534729D01*
X108336186Y-95636186D01*
X108234729Y-95719448D01*
X108198991Y-95748778D01*
X108042466Y-95832443D01*
X107872627Y-95883963D01*
X107806442Y-95890482D01*
X107740260Y-95897000D01*
X107651740Y-95897000D01*
X107585557Y-95890481D01*
X107519373Y-95883963D01*
X107349534Y-95832443D01*
X107193009Y-95748778D01*
X107157271Y-95719448D01*
X107055814Y-95636186D01*
X106972552Y-95534729D01*
X106943222Y-95498991D01*
X106859557Y-95342466D01*
X106808037Y-95172627D01*
X106790641Y-94996000D01*
X106808037Y-94819373D01*
X106859557Y-94649534D01*
X106943222Y-94493009D01*
X106977187Y-94451623D01*
X107055814Y-94355814D01*
X107157271Y-94272552D01*
X107193009Y-94243222D01*
X107349534Y-94159557D01*
X107519373Y-94108037D01*
X107585558Y-94101518D01*
X107651740Y-94095000D01*
X107740260Y-94095000D01*
X107806442Y-94101518D01*
X107806442Y-94101518D01*
G37*
G36*
X84677703Y-93446113D02*
G01*
X84808260Y-93485717D01*
X84835871Y-93494093D01*
X84838122Y-93494776D01*
X84970786Y-93565686D01*
X84985958Y-93573796D01*
X85115539Y-93680141D01*
X85221884Y-93809722D01*
X85221885Y-93809724D01*
X85300904Y-93957558D01*
X85349567Y-94117977D01*
X85365997Y-94284800D01*
X85349567Y-94451623D01*
X85300904Y-94612042D01*
X85282344Y-94646765D01*
X85221884Y-94759878D01*
X85115539Y-94889459D01*
X84985958Y-94995804D01*
X84985956Y-94995805D01*
X84838122Y-95074824D01*
X84677703Y-95123487D01*
X84552684Y-95135800D01*
X84469076Y-95135800D01*
X84344057Y-95123487D01*
X84183638Y-95074824D01*
X84035804Y-94995805D01*
X84035802Y-94995804D01*
X83906221Y-94889459D01*
X83799876Y-94759878D01*
X83739416Y-94646765D01*
X83720856Y-94612042D01*
X83672193Y-94451623D01*
X83655763Y-94284800D01*
X83672193Y-94117977D01*
X83720856Y-93957558D01*
X83799875Y-93809724D01*
X83799876Y-93809722D01*
X83906221Y-93680141D01*
X84035802Y-93573796D01*
X84050974Y-93565686D01*
X84183638Y-93494776D01*
X84185890Y-93494093D01*
X84213500Y-93485717D01*
X84344057Y-93446113D01*
X84469076Y-93433800D01*
X84552684Y-93433800D01*
X84677703Y-93446113D01*
X84677703Y-93446113D01*
G37*
G36*
X99917703Y-93446113D02*
G01*
X100048260Y-93485717D01*
X100075871Y-93494093D01*
X100078122Y-93494776D01*
X100210786Y-93565686D01*
X100225958Y-93573796D01*
X100355539Y-93680141D01*
X100461884Y-93809722D01*
X100461885Y-93809724D01*
X100540904Y-93957558D01*
X100589567Y-94117977D01*
X100605997Y-94284800D01*
X100589567Y-94451623D01*
X100540904Y-94612042D01*
X100522344Y-94646765D01*
X100461884Y-94759878D01*
X100355539Y-94889459D01*
X100225958Y-94995804D01*
X100225956Y-94995805D01*
X100078122Y-95074824D01*
X99917703Y-95123487D01*
X99792684Y-95135800D01*
X99709076Y-95135800D01*
X99584057Y-95123487D01*
X99423638Y-95074824D01*
X99275804Y-94995805D01*
X99275802Y-94995804D01*
X99146221Y-94889459D01*
X99039876Y-94759878D01*
X98979416Y-94646765D01*
X98960856Y-94612042D01*
X98912193Y-94451623D01*
X98895763Y-94284800D01*
X98912193Y-94117977D01*
X98960856Y-93957558D01*
X99039875Y-93809724D01*
X99039876Y-93809722D01*
X99146221Y-93680141D01*
X99275802Y-93573796D01*
X99290974Y-93565686D01*
X99423638Y-93494776D01*
X99425890Y-93494093D01*
X99453500Y-93485717D01*
X99584057Y-93446113D01*
X99709076Y-93433800D01*
X99792684Y-93433800D01*
X99917703Y-93446113D01*
X99917703Y-93446113D01*
G37*
G36*
X39003097Y-92854069D02*
G01*
X39106032Y-92864207D01*
X39304146Y-92924305D01*
X39304149Y-92924306D01*
X39400975Y-92976061D01*
X39486729Y-93021897D01*
X39646765Y-93153235D01*
X39778103Y-93313271D01*
X39794508Y-93343963D01*
X39875694Y-93495851D01*
X39875695Y-93495854D01*
X39935793Y-93693968D01*
X39956085Y-93900000D01*
X39935793Y-94106032D01*
X39878166Y-94296000D01*
X39875694Y-94304149D01*
X39848078Y-94355814D01*
X39778103Y-94486729D01*
X39646765Y-94646765D01*
X39486729Y-94778103D01*
X39410803Y-94818686D01*
X39304149Y-94875694D01*
X39304146Y-94875695D01*
X39106032Y-94935793D01*
X39003097Y-94945931D01*
X38951631Y-94951000D01*
X37248369Y-94951000D01*
X37196903Y-94945931D01*
X37093968Y-94935793D01*
X36895854Y-94875695D01*
X36895851Y-94875694D01*
X36789197Y-94818686D01*
X36713271Y-94778103D01*
X36553235Y-94646765D01*
X36421897Y-94486729D01*
X36351922Y-94355814D01*
X36324306Y-94304149D01*
X36321834Y-94296000D01*
X36264207Y-94106032D01*
X36243915Y-93900000D01*
X36264207Y-93693968D01*
X36324305Y-93495854D01*
X36324306Y-93495851D01*
X36405492Y-93343963D01*
X36421897Y-93313271D01*
X36553235Y-93153235D01*
X36713271Y-93021897D01*
X36799025Y-92976061D01*
X36895851Y-92924306D01*
X36895854Y-92924305D01*
X37093968Y-92864207D01*
X37196903Y-92854069D01*
X37248369Y-92849000D01*
X38951631Y-92849000D01*
X39003097Y-92854069D01*
X39003097Y-92854069D01*
G37*
G36*
X47941000Y-94931000D02*
G01*
X46039000Y-94931000D01*
X46039000Y-93029000D01*
X47941000Y-93029000D01*
X47941000Y-94931000D01*
X47941000Y-94931000D01*
G37*
G36*
X60491823Y-93141313D02*
G01*
X60652242Y-93189976D01*
X60767033Y-93251333D01*
X60800078Y-93268996D01*
X60929659Y-93375341D01*
X61036004Y-93504922D01*
X61036005Y-93504924D01*
X61115024Y-93652758D01*
X61163687Y-93813177D01*
X61180117Y-93980000D01*
X61163687Y-94146823D01*
X61115024Y-94307242D01*
X61089061Y-94355815D01*
X61036004Y-94455078D01*
X60929659Y-94584659D01*
X60800078Y-94691004D01*
X60800076Y-94691005D01*
X60652242Y-94770024D01*
X60491823Y-94818687D01*
X60366804Y-94831000D01*
X60283196Y-94831000D01*
X60158177Y-94818687D01*
X59997758Y-94770024D01*
X59849924Y-94691005D01*
X59849922Y-94691004D01*
X59720341Y-94584659D01*
X59613996Y-94455078D01*
X59560939Y-94355815D01*
X59534976Y-94307242D01*
X59486313Y-94146823D01*
X59469883Y-93980000D01*
X59486313Y-93813177D01*
X59534976Y-93652758D01*
X59613995Y-93504924D01*
X59613996Y-93504922D01*
X59720341Y-93375341D01*
X59849922Y-93268996D01*
X59882967Y-93251333D01*
X59997758Y-93189976D01*
X60158177Y-93141313D01*
X60283196Y-93129000D01*
X60366804Y-93129000D01*
X60491823Y-93141313D01*
X60491823Y-93141313D01*
G37*
G36*
X68111823Y-93141313D02*
G01*
X68272242Y-93189976D01*
X68387033Y-93251333D01*
X68420078Y-93268996D01*
X68549659Y-93375341D01*
X68656004Y-93504922D01*
X68656005Y-93504924D01*
X68735024Y-93652758D01*
X68783687Y-93813177D01*
X68800117Y-93980000D01*
X68783687Y-94146823D01*
X68735024Y-94307242D01*
X68709061Y-94355815D01*
X68656004Y-94455078D01*
X68549659Y-94584659D01*
X68420078Y-94691004D01*
X68420076Y-94691005D01*
X68272242Y-94770024D01*
X68111823Y-94818687D01*
X67986804Y-94831000D01*
X67903196Y-94831000D01*
X67778177Y-94818687D01*
X67617758Y-94770024D01*
X67469924Y-94691005D01*
X67469922Y-94691004D01*
X67340341Y-94584659D01*
X67233996Y-94455078D01*
X67180939Y-94355815D01*
X67154976Y-94307242D01*
X67106313Y-94146823D01*
X67089883Y-93980000D01*
X67106313Y-93813177D01*
X67154976Y-93652758D01*
X67233995Y-93504924D01*
X67233996Y-93504922D01*
X67340341Y-93375341D01*
X67469922Y-93268996D01*
X67502967Y-93251333D01*
X67617758Y-93189976D01*
X67778177Y-93141313D01*
X67903196Y-93129000D01*
X67986804Y-93129000D01*
X68111823Y-93141313D01*
X68111823Y-93141313D01*
G37*
G36*
X54252395Y-92430546D02*
G01*
X54425466Y-92502234D01*
X54425467Y-92502235D01*
X54581227Y-92606310D01*
X54713690Y-92738773D01*
X54713691Y-92738775D01*
X54817766Y-92894534D01*
X54889454Y-93067605D01*
X54926000Y-93251333D01*
X54926000Y-93438667D01*
X54889454Y-93622395D01*
X54817766Y-93795466D01*
X54817765Y-93795467D01*
X54713690Y-93951227D01*
X54581227Y-94083690D01*
X54502818Y-94136081D01*
X54425466Y-94187766D01*
X54252395Y-94259454D01*
X54068667Y-94296000D01*
X53881333Y-94296000D01*
X53697605Y-94259454D01*
X53524534Y-94187766D01*
X53447182Y-94136081D01*
X53368773Y-94083690D01*
X53236310Y-93951227D01*
X53132235Y-93795467D01*
X53132234Y-93795466D01*
X53060546Y-93622395D01*
X53024000Y-93438667D01*
X53024000Y-93251333D01*
X53060546Y-93067605D01*
X53132234Y-92894534D01*
X53236309Y-92738775D01*
X53236310Y-92738773D01*
X53368773Y-92606310D01*
X53524533Y-92502235D01*
X53524534Y-92502234D01*
X53697605Y-92430546D01*
X53881333Y-92394000D01*
X54068667Y-92394000D01*
X54252395Y-92430546D01*
X54252395Y-92430546D01*
G37*
G36*
X52386000Y-94296000D02*
G01*
X50484000Y-94296000D01*
X50484000Y-92394000D01*
X52386000Y-92394000D01*
X52386000Y-94296000D01*
X52386000Y-94296000D01*
G37*
G36*
X73156475Y-86497975D02*
G01*
X73484126Y-86563149D01*
X74166765Y-86845907D01*
X74781123Y-87256408D01*
X75303592Y-87778877D01*
X75714093Y-88393235D01*
X75996851Y-89075874D01*
X76022496Y-89204800D01*
X76141000Y-89800557D01*
X76141000Y-90539443D01*
X76098631Y-90752443D01*
X75996851Y-91264126D01*
X75714093Y-91946765D01*
X75303592Y-92561123D01*
X74781123Y-93083592D01*
X74166765Y-93494093D01*
X73484126Y-93776851D01*
X73318862Y-93809724D01*
X72759443Y-93921000D01*
X72020557Y-93921000D01*
X71461138Y-93809724D01*
X71295874Y-93776851D01*
X70613235Y-93494093D01*
X69998877Y-93083592D01*
X69476408Y-92561123D01*
X69065907Y-91946765D01*
X68783149Y-91264126D01*
X68681369Y-90752443D01*
X68639000Y-90539443D01*
X68639000Y-89800557D01*
X68757504Y-89204800D01*
X68783149Y-89075874D01*
X69065907Y-88393235D01*
X69476408Y-87778877D01*
X69998877Y-87256408D01*
X70613235Y-86845907D01*
X71295874Y-86563149D01*
X71623525Y-86497975D01*
X72020557Y-86419000D01*
X72759443Y-86419000D01*
X73156475Y-86497975D01*
X73156475Y-86497975D01*
G37*
G36*
X107806443Y-91561519D02*
G01*
X107872627Y-91568037D01*
X108042466Y-91619557D01*
X108198991Y-91703222D01*
X108234729Y-91732552D01*
X108336186Y-91815814D01*
X108414813Y-91911623D01*
X108448778Y-91953009D01*
X108532443Y-92109534D01*
X108583963Y-92279373D01*
X108601359Y-92456000D01*
X108583963Y-92632627D01*
X108551764Y-92738773D01*
X108532442Y-92802468D01*
X108490611Y-92880728D01*
X108448778Y-92958991D01*
X108419448Y-92994729D01*
X108336186Y-93096186D01*
X108234729Y-93179448D01*
X108198991Y-93208778D01*
X108042466Y-93292443D01*
X107872627Y-93343963D01*
X107806442Y-93350482D01*
X107740260Y-93357000D01*
X107651740Y-93357000D01*
X107585558Y-93350482D01*
X107519373Y-93343963D01*
X107349534Y-93292443D01*
X107193009Y-93208778D01*
X107157271Y-93179448D01*
X107055814Y-93096186D01*
X106972552Y-92994729D01*
X106943222Y-92958991D01*
X106901390Y-92880729D01*
X106859558Y-92802468D01*
X106840236Y-92738773D01*
X106808037Y-92632627D01*
X106790641Y-92456000D01*
X106808037Y-92279373D01*
X106859557Y-92109534D01*
X106943222Y-91953009D01*
X106977187Y-91911623D01*
X107055814Y-91815814D01*
X107157271Y-91732552D01*
X107193009Y-91703222D01*
X107349534Y-91619557D01*
X107519373Y-91568037D01*
X107585557Y-91561519D01*
X107651740Y-91555000D01*
X107740260Y-91555000D01*
X107806443Y-91561519D01*
X107806443Y-91561519D01*
G37*
G36*
X84677703Y-90906113D02*
G01*
X84838122Y-90954776D01*
X84970786Y-91025686D01*
X84985958Y-91033796D01*
X85115539Y-91140141D01*
X85221884Y-91269722D01*
X85221885Y-91269724D01*
X85300904Y-91417558D01*
X85349567Y-91577977D01*
X85365997Y-91744800D01*
X85349567Y-91911623D01*
X85300904Y-92072042D01*
X85229994Y-92204706D01*
X85221884Y-92219878D01*
X85115539Y-92349459D01*
X84985958Y-92455804D01*
X84985956Y-92455805D01*
X84838122Y-92534824D01*
X84677703Y-92583487D01*
X84552684Y-92595800D01*
X84469076Y-92595800D01*
X84344057Y-92583487D01*
X84183638Y-92534824D01*
X84035804Y-92455805D01*
X84035802Y-92455804D01*
X83906221Y-92349459D01*
X83799876Y-92219878D01*
X83791766Y-92204706D01*
X83720856Y-92072042D01*
X83672193Y-91911623D01*
X83655763Y-91744800D01*
X83672193Y-91577977D01*
X83720856Y-91417558D01*
X83799875Y-91269724D01*
X83799876Y-91269722D01*
X83906221Y-91140141D01*
X84035802Y-91033796D01*
X84050974Y-91025686D01*
X84183638Y-90954776D01*
X84344057Y-90906113D01*
X84469076Y-90893800D01*
X84552684Y-90893800D01*
X84677703Y-90906113D01*
X84677703Y-90906113D01*
G37*
G36*
X99917703Y-90906113D02*
G01*
X100078122Y-90954776D01*
X100210786Y-91025686D01*
X100225958Y-91033796D01*
X100355539Y-91140141D01*
X100461884Y-91269722D01*
X100461885Y-91269724D01*
X100540904Y-91417558D01*
X100589567Y-91577977D01*
X100605997Y-91744800D01*
X100589567Y-91911623D01*
X100540904Y-92072042D01*
X100469994Y-92204706D01*
X100461884Y-92219878D01*
X100355539Y-92349459D01*
X100225958Y-92455804D01*
X100225956Y-92455805D01*
X100078122Y-92534824D01*
X99917703Y-92583487D01*
X99792684Y-92595800D01*
X99709076Y-92595800D01*
X99584057Y-92583487D01*
X99423638Y-92534824D01*
X99275804Y-92455805D01*
X99275802Y-92455804D01*
X99146221Y-92349459D01*
X99039876Y-92219878D01*
X99031766Y-92204706D01*
X98960856Y-92072042D01*
X98912193Y-91911623D01*
X98895763Y-91744800D01*
X98912193Y-91577977D01*
X98960856Y-91417558D01*
X99039875Y-91269724D01*
X99039876Y-91269722D01*
X99146221Y-91140141D01*
X99275802Y-91033796D01*
X99290974Y-91025686D01*
X99423638Y-90954776D01*
X99584057Y-90906113D01*
X99709076Y-90893800D01*
X99792684Y-90893800D01*
X99917703Y-90906113D01*
X99917703Y-90906113D01*
G37*
G36*
X47176425Y-90502760D02*
G01*
X47176428Y-90502761D01*
X47176429Y-90502761D01*
X47355693Y-90557140D01*
X47355696Y-90557142D01*
X47355697Y-90557142D01*
X47520903Y-90645446D01*
X47665712Y-90764288D01*
X47784554Y-90909097D01*
X47872858Y-91074303D01*
X47872860Y-91074307D01*
X47892830Y-91140141D01*
X47927240Y-91253575D01*
X47945601Y-91440000D01*
X47927240Y-91626425D01*
X47927239Y-91626428D01*
X47927239Y-91626429D01*
X47872860Y-91805693D01*
X47872858Y-91805696D01*
X47872858Y-91805697D01*
X47784554Y-91970903D01*
X47665712Y-92115712D01*
X47520903Y-92234554D01*
X47355697Y-92322858D01*
X47355693Y-92322860D01*
X47176429Y-92377239D01*
X47176428Y-92377239D01*
X47176425Y-92377240D01*
X47036718Y-92391000D01*
X46943282Y-92391000D01*
X46803575Y-92377240D01*
X46803572Y-92377239D01*
X46803571Y-92377239D01*
X46624307Y-92322860D01*
X46624303Y-92322858D01*
X46459097Y-92234554D01*
X46314288Y-92115712D01*
X46195446Y-91970903D01*
X46107142Y-91805697D01*
X46107142Y-91805696D01*
X46107140Y-91805693D01*
X46052761Y-91626429D01*
X46052761Y-91626428D01*
X46052760Y-91626425D01*
X46034399Y-91440000D01*
X46052760Y-91253575D01*
X46087170Y-91140141D01*
X46107140Y-91074307D01*
X46107142Y-91074303D01*
X46195446Y-90909097D01*
X46314288Y-90764288D01*
X46459097Y-90645446D01*
X46624303Y-90557142D01*
X46624304Y-90557142D01*
X46624307Y-90557140D01*
X46803571Y-90502761D01*
X46803572Y-90502761D01*
X46803575Y-90502760D01*
X46943282Y-90489000D01*
X47036718Y-90489000D01*
X47176425Y-90502760D01*
X47176425Y-90502760D01*
G37*
G36*
X107806442Y-89021518D02*
G01*
X107872627Y-89028037D01*
X108042466Y-89079557D01*
X108198991Y-89163222D01*
X108234729Y-89192552D01*
X108336186Y-89275814D01*
X108414813Y-89371623D01*
X108448778Y-89413009D01*
X108532443Y-89569534D01*
X108583963Y-89739373D01*
X108601359Y-89916000D01*
X108583963Y-90092627D01*
X108532443Y-90262466D01*
X108448778Y-90418991D01*
X108419448Y-90454729D01*
X108336186Y-90556186D01*
X108234729Y-90639448D01*
X108198991Y-90668778D01*
X108042466Y-90752443D01*
X107872627Y-90803963D01*
X107806443Y-90810481D01*
X107740260Y-90817000D01*
X107651740Y-90817000D01*
X107585557Y-90810481D01*
X107519373Y-90803963D01*
X107349534Y-90752443D01*
X107193009Y-90668778D01*
X107157271Y-90639448D01*
X107055814Y-90556186D01*
X106972552Y-90454729D01*
X106943222Y-90418991D01*
X106859557Y-90262466D01*
X106808037Y-90092627D01*
X106790641Y-89916000D01*
X106808037Y-89739373D01*
X106859557Y-89569534D01*
X106943222Y-89413009D01*
X106977187Y-89371623D01*
X107055814Y-89275814D01*
X107157271Y-89192552D01*
X107193009Y-89163222D01*
X107349534Y-89079557D01*
X107519373Y-89028037D01*
X107585558Y-89021518D01*
X107651740Y-89015000D01*
X107740260Y-89015000D01*
X107806442Y-89021518D01*
X107806442Y-89021518D01*
G37*
G36*
X99917703Y-88366113D02*
G01*
X100078122Y-88414776D01*
X100210786Y-88485686D01*
X100225958Y-88493796D01*
X100355539Y-88600141D01*
X100461884Y-88729722D01*
X100461885Y-88729724D01*
X100540904Y-88877558D01*
X100589567Y-89037977D01*
X100605997Y-89204800D01*
X100589567Y-89371623D01*
X100540904Y-89532042D01*
X100469994Y-89664706D01*
X100461884Y-89679878D01*
X100355539Y-89809459D01*
X100225958Y-89915804D01*
X100225956Y-89915805D01*
X100078122Y-89994824D01*
X99917703Y-90043487D01*
X99792684Y-90055800D01*
X99709076Y-90055800D01*
X99584057Y-90043487D01*
X99423638Y-89994824D01*
X99275804Y-89915805D01*
X99275802Y-89915804D01*
X99146221Y-89809459D01*
X99039876Y-89679878D01*
X99031766Y-89664706D01*
X98960856Y-89532042D01*
X98912193Y-89371623D01*
X98895763Y-89204800D01*
X98912193Y-89037977D01*
X98960856Y-88877558D01*
X99039875Y-88729724D01*
X99039876Y-88729722D01*
X99146221Y-88600141D01*
X99275802Y-88493796D01*
X99290974Y-88485686D01*
X99423638Y-88414776D01*
X99584057Y-88366113D01*
X99709076Y-88353800D01*
X99792684Y-88353800D01*
X99917703Y-88366113D01*
X99917703Y-88366113D01*
G37*
G36*
X84677703Y-88366113D02*
G01*
X84838122Y-88414776D01*
X84970786Y-88485686D01*
X84985958Y-88493796D01*
X85115539Y-88600141D01*
X85221884Y-88729722D01*
X85221885Y-88729724D01*
X85300904Y-88877558D01*
X85349567Y-89037977D01*
X85365997Y-89204800D01*
X85349567Y-89371623D01*
X85300904Y-89532042D01*
X85229994Y-89664706D01*
X85221884Y-89679878D01*
X85115539Y-89809459D01*
X84985958Y-89915804D01*
X84985956Y-89915805D01*
X84838122Y-89994824D01*
X84677703Y-90043487D01*
X84552684Y-90055800D01*
X84469076Y-90055800D01*
X84344057Y-90043487D01*
X84183638Y-89994824D01*
X84035804Y-89915805D01*
X84035802Y-89915804D01*
X83906221Y-89809459D01*
X83799876Y-89679878D01*
X83791766Y-89664706D01*
X83720856Y-89532042D01*
X83672193Y-89371623D01*
X83655763Y-89204800D01*
X83672193Y-89037977D01*
X83720856Y-88877558D01*
X83799875Y-88729724D01*
X83799876Y-88729722D01*
X83906221Y-88600141D01*
X84035802Y-88493796D01*
X84050974Y-88485686D01*
X84183638Y-88414776D01*
X84344057Y-88366113D01*
X84469076Y-88353800D01*
X84552684Y-88353800D01*
X84677703Y-88366113D01*
X84677703Y-88366113D01*
G37*
G36*
X39951000Y-89951000D02*
G01*
X36249000Y-89951000D01*
X36249000Y-87849000D01*
X39951000Y-87849000D01*
X39951000Y-89951000D01*
X39951000Y-89951000D01*
G37*
G36*
X47176425Y-87962760D02*
G01*
X47176428Y-87962761D01*
X47176429Y-87962761D01*
X47355693Y-88017140D01*
X47355696Y-88017142D01*
X47355697Y-88017142D01*
X47520903Y-88105446D01*
X47665712Y-88224288D01*
X47784554Y-88369097D01*
X47872858Y-88534303D01*
X47872860Y-88534307D01*
X47892830Y-88600141D01*
X47927240Y-88713575D01*
X47945601Y-88900000D01*
X47927240Y-89086425D01*
X47927239Y-89086428D01*
X47927239Y-89086429D01*
X47872860Y-89265693D01*
X47872858Y-89265696D01*
X47872858Y-89265697D01*
X47784554Y-89430903D01*
X47665712Y-89575712D01*
X47520903Y-89694554D01*
X47355697Y-89782858D01*
X47355693Y-89782860D01*
X47176429Y-89837239D01*
X47176428Y-89837239D01*
X47176425Y-89837240D01*
X47036718Y-89851000D01*
X46943282Y-89851000D01*
X46803575Y-89837240D01*
X46803572Y-89837239D01*
X46803571Y-89837239D01*
X46624307Y-89782860D01*
X46624303Y-89782858D01*
X46459097Y-89694554D01*
X46314288Y-89575712D01*
X46195446Y-89430903D01*
X46107142Y-89265697D01*
X46107142Y-89265696D01*
X46107140Y-89265693D01*
X46052761Y-89086429D01*
X46052761Y-89086428D01*
X46052760Y-89086425D01*
X46034399Y-88900000D01*
X46052760Y-88713575D01*
X46087170Y-88600141D01*
X46107140Y-88534307D01*
X46107142Y-88534303D01*
X46195446Y-88369097D01*
X46314288Y-88224288D01*
X46459097Y-88105446D01*
X46624303Y-88017142D01*
X46624304Y-88017142D01*
X46624307Y-88017140D01*
X46803571Y-87962761D01*
X46803572Y-87962761D01*
X46803575Y-87962760D01*
X46943282Y-87949000D01*
X47036718Y-87949000D01*
X47176425Y-87962760D01*
X47176425Y-87962760D01*
G37*
G36*
X107806442Y-86481518D02*
G01*
X107872627Y-86488037D01*
X108042466Y-86539557D01*
X108198991Y-86623222D01*
X108234729Y-86652552D01*
X108336186Y-86735814D01*
X108414813Y-86831623D01*
X108448778Y-86873009D01*
X108532443Y-87029534D01*
X108583963Y-87199373D01*
X108601359Y-87376000D01*
X108583963Y-87552627D01*
X108532443Y-87722466D01*
X108448778Y-87878991D01*
X108419448Y-87914729D01*
X108336186Y-88016186D01*
X108234729Y-88099448D01*
X108198991Y-88128778D01*
X108042466Y-88212443D01*
X107872627Y-88263963D01*
X107806442Y-88270482D01*
X107740260Y-88277000D01*
X107651740Y-88277000D01*
X107585558Y-88270482D01*
X107519373Y-88263963D01*
X107349534Y-88212443D01*
X107193009Y-88128778D01*
X107157271Y-88099448D01*
X107055814Y-88016186D01*
X106972552Y-87914729D01*
X106943222Y-87878991D01*
X106859557Y-87722466D01*
X106808037Y-87552627D01*
X106790641Y-87376000D01*
X106808037Y-87199373D01*
X106859557Y-87029534D01*
X106943222Y-86873009D01*
X106977187Y-86831623D01*
X107055814Y-86735814D01*
X107157271Y-86652552D01*
X107193009Y-86623222D01*
X107349534Y-86539557D01*
X107519373Y-86488037D01*
X107585558Y-86481518D01*
X107651740Y-86475000D01*
X107740260Y-86475000D01*
X107806442Y-86481518D01*
X107806442Y-86481518D01*
G37*
G36*
X84677703Y-85826113D02*
G01*
X84838122Y-85874776D01*
X84970786Y-85945686D01*
X84985958Y-85953796D01*
X85115539Y-86060141D01*
X85221884Y-86189722D01*
X85221885Y-86189724D01*
X85300904Y-86337558D01*
X85349567Y-86497977D01*
X85365997Y-86664800D01*
X85349567Y-86831623D01*
X85300904Y-86992042D01*
X85280865Y-87029532D01*
X85221884Y-87139878D01*
X85115539Y-87269459D01*
X84985958Y-87375804D01*
X84985956Y-87375805D01*
X84838122Y-87454824D01*
X84677703Y-87503487D01*
X84552684Y-87515800D01*
X84469076Y-87515800D01*
X84344057Y-87503487D01*
X84183638Y-87454824D01*
X84035804Y-87375805D01*
X84035802Y-87375804D01*
X83906221Y-87269459D01*
X83799876Y-87139878D01*
X83740895Y-87029532D01*
X83720856Y-86992042D01*
X83672193Y-86831623D01*
X83655763Y-86664800D01*
X83672193Y-86497977D01*
X83720856Y-86337558D01*
X83799875Y-86189724D01*
X83799876Y-86189722D01*
X83906221Y-86060141D01*
X84035802Y-85953796D01*
X84050974Y-85945686D01*
X84183638Y-85874776D01*
X84344057Y-85826113D01*
X84469076Y-85813800D01*
X84552684Y-85813800D01*
X84677703Y-85826113D01*
X84677703Y-85826113D01*
G37*
G36*
X99917703Y-85826113D02*
G01*
X100078122Y-85874776D01*
X100210786Y-85945686D01*
X100225958Y-85953796D01*
X100355539Y-86060141D01*
X100461884Y-86189722D01*
X100461885Y-86189724D01*
X100540904Y-86337558D01*
X100589567Y-86497977D01*
X100605997Y-86664800D01*
X100589567Y-86831623D01*
X100540904Y-86992042D01*
X100520865Y-87029532D01*
X100461884Y-87139878D01*
X100355539Y-87269459D01*
X100225958Y-87375804D01*
X100225956Y-87375805D01*
X100078122Y-87454824D01*
X99917703Y-87503487D01*
X99792684Y-87515800D01*
X99709076Y-87515800D01*
X99584057Y-87503487D01*
X99423638Y-87454824D01*
X99275804Y-87375805D01*
X99275802Y-87375804D01*
X99146221Y-87269459D01*
X99039876Y-87139878D01*
X98980895Y-87029532D01*
X98960856Y-86992042D01*
X98912193Y-86831623D01*
X98895763Y-86664800D01*
X98912193Y-86497977D01*
X98960856Y-86337558D01*
X99039875Y-86189724D01*
X99039876Y-86189722D01*
X99146221Y-86060141D01*
X99275802Y-85953796D01*
X99290974Y-85945686D01*
X99423638Y-85874776D01*
X99584057Y-85826113D01*
X99709076Y-85813800D01*
X99792684Y-85813800D01*
X99917703Y-85826113D01*
X99917703Y-85826113D01*
G37*
G36*
X61176000Y-86576000D02*
G01*
X59474000Y-86576000D01*
X59474000Y-84874000D01*
X61176000Y-84874000D01*
X61176000Y-86576000D01*
X61176000Y-86576000D01*
G37*
G36*
X58573228Y-84906703D02*
G01*
X58728100Y-84970853D01*
X58867481Y-85063985D01*
X58986015Y-85182519D01*
X59079147Y-85321900D01*
X59143297Y-85476772D01*
X59176000Y-85641184D01*
X59176000Y-85808816D01*
X59143297Y-85973228D01*
X59079147Y-86128100D01*
X58986015Y-86267481D01*
X58867481Y-86386015D01*
X58728100Y-86479147D01*
X58573228Y-86543297D01*
X58408816Y-86576000D01*
X58241184Y-86576000D01*
X58076772Y-86543297D01*
X57921900Y-86479147D01*
X57782519Y-86386015D01*
X57663985Y-86267481D01*
X57570853Y-86128100D01*
X57506703Y-85973228D01*
X57474000Y-85808816D01*
X57474000Y-85641184D01*
X57506703Y-85476772D01*
X57570853Y-85321900D01*
X57663985Y-85182519D01*
X57782519Y-85063985D01*
X57921900Y-84970853D01*
X58076772Y-84906703D01*
X58241184Y-84874000D01*
X58408816Y-84874000D01*
X58573228Y-84906703D01*
X58573228Y-84906703D01*
G37*
G36*
X66383228Y-84906703D02*
G01*
X66538100Y-84970853D01*
X66677481Y-85063985D01*
X66796015Y-85182519D01*
X66889147Y-85321900D01*
X66953297Y-85476772D01*
X66986000Y-85641184D01*
X66986000Y-85808816D01*
X66953297Y-85973228D01*
X66889147Y-86128100D01*
X66796015Y-86267481D01*
X66677481Y-86386015D01*
X66538100Y-86479147D01*
X66383228Y-86543297D01*
X66218816Y-86576000D01*
X66051184Y-86576000D01*
X65886772Y-86543297D01*
X65731900Y-86479147D01*
X65592519Y-86386015D01*
X65473985Y-86267481D01*
X65380853Y-86128100D01*
X65316703Y-85973228D01*
X65284000Y-85808816D01*
X65284000Y-85641184D01*
X65316703Y-85476772D01*
X65380853Y-85321900D01*
X65473985Y-85182519D01*
X65592519Y-85063985D01*
X65731900Y-84970853D01*
X65886772Y-84906703D01*
X66051184Y-84874000D01*
X66218816Y-84874000D01*
X66383228Y-84906703D01*
X66383228Y-84906703D01*
G37*
G36*
X64986000Y-86576000D02*
G01*
X63284000Y-86576000D01*
X63284000Y-84874000D01*
X64986000Y-84874000D01*
X64986000Y-86576000D01*
X64986000Y-86576000D01*
G37*
G36*
X107806443Y-83941519D02*
G01*
X107872627Y-83948037D01*
X108042466Y-83999557D01*
X108198991Y-84083222D01*
X108234729Y-84112552D01*
X108336186Y-84195814D01*
X108414813Y-84291623D01*
X108448778Y-84333009D01*
X108532443Y-84489534D01*
X108583963Y-84659373D01*
X108601359Y-84836000D01*
X108583963Y-85012627D01*
X108532443Y-85182466D01*
X108448778Y-85338991D01*
X108419448Y-85374729D01*
X108336186Y-85476186D01*
X108234729Y-85559448D01*
X108198991Y-85588778D01*
X108042466Y-85672443D01*
X107872627Y-85723963D01*
X107806443Y-85730481D01*
X107740260Y-85737000D01*
X107651740Y-85737000D01*
X107585557Y-85730481D01*
X107519373Y-85723963D01*
X107349534Y-85672443D01*
X107193009Y-85588778D01*
X107157271Y-85559448D01*
X107055814Y-85476186D01*
X106972552Y-85374729D01*
X106943222Y-85338991D01*
X106859557Y-85182466D01*
X106808037Y-85012627D01*
X106790641Y-84836000D01*
X106808037Y-84659373D01*
X106859557Y-84489534D01*
X106943222Y-84333009D01*
X106977187Y-84291623D01*
X107055814Y-84195814D01*
X107157271Y-84112552D01*
X107193009Y-84083222D01*
X107349534Y-83999557D01*
X107519373Y-83948037D01*
X107585557Y-83941519D01*
X107651740Y-83935000D01*
X107740260Y-83935000D01*
X107806443Y-83941519D01*
X107806443Y-83941519D01*
G37*
G36*
X84677703Y-83286113D02*
G01*
X84838122Y-83334776D01*
X84970786Y-83405686D01*
X84985958Y-83413796D01*
X85115539Y-83520141D01*
X85221884Y-83649722D01*
X85221885Y-83649724D01*
X85300904Y-83797558D01*
X85349567Y-83957977D01*
X85365997Y-84124800D01*
X85349567Y-84291623D01*
X85300904Y-84452042D01*
X85280865Y-84489532D01*
X85221884Y-84599878D01*
X85115539Y-84729459D01*
X84985958Y-84835804D01*
X84985956Y-84835805D01*
X84838122Y-84914824D01*
X84677703Y-84963487D01*
X84552684Y-84975800D01*
X84469076Y-84975800D01*
X84344057Y-84963487D01*
X84183638Y-84914824D01*
X84035804Y-84835805D01*
X84035802Y-84835804D01*
X83906221Y-84729459D01*
X83799876Y-84599878D01*
X83740895Y-84489532D01*
X83720856Y-84452042D01*
X83672193Y-84291623D01*
X83655763Y-84124800D01*
X83672193Y-83957977D01*
X83720856Y-83797558D01*
X83799875Y-83649724D01*
X83799876Y-83649722D01*
X83906221Y-83520141D01*
X84035802Y-83413796D01*
X84050974Y-83405686D01*
X84183638Y-83334776D01*
X84344057Y-83286113D01*
X84469076Y-83273800D01*
X84552684Y-83273800D01*
X84677703Y-83286113D01*
X84677703Y-83286113D01*
G37*
G36*
X99917703Y-83286113D02*
G01*
X100078122Y-83334776D01*
X100210786Y-83405686D01*
X100225958Y-83413796D01*
X100355539Y-83520141D01*
X100461884Y-83649722D01*
X100461885Y-83649724D01*
X100540904Y-83797558D01*
X100589567Y-83957977D01*
X100605997Y-84124800D01*
X100589567Y-84291623D01*
X100540904Y-84452042D01*
X100520865Y-84489532D01*
X100461884Y-84599878D01*
X100355539Y-84729459D01*
X100225958Y-84835804D01*
X100225956Y-84835805D01*
X100078122Y-84914824D01*
X99917703Y-84963487D01*
X99792684Y-84975800D01*
X99709076Y-84975800D01*
X99584057Y-84963487D01*
X99423638Y-84914824D01*
X99275804Y-84835805D01*
X99275802Y-84835804D01*
X99146221Y-84729459D01*
X99039876Y-84599878D01*
X98980895Y-84489532D01*
X98960856Y-84452042D01*
X98912193Y-84291623D01*
X98895763Y-84124800D01*
X98912193Y-83957977D01*
X98960856Y-83797558D01*
X99039875Y-83649724D01*
X99039876Y-83649722D01*
X99146221Y-83520141D01*
X99275802Y-83413796D01*
X99290974Y-83405686D01*
X99423638Y-83334776D01*
X99584057Y-83286113D01*
X99709076Y-83273800D01*
X99792684Y-83273800D01*
X99917703Y-83286113D01*
X99917703Y-83286113D01*
G37*
G36*
X107806443Y-81401519D02*
G01*
X107872627Y-81408037D01*
X108042466Y-81459557D01*
X108198991Y-81543222D01*
X108234729Y-81572552D01*
X108336186Y-81655814D01*
X108414813Y-81751623D01*
X108448778Y-81793009D01*
X108448779Y-81793011D01*
X108527890Y-81941015D01*
X108532443Y-81949534D01*
X108583963Y-82119373D01*
X108601359Y-82296000D01*
X108583963Y-82472627D01*
X108532443Y-82642466D01*
X108448778Y-82798991D01*
X108419448Y-82834729D01*
X108336186Y-82936186D01*
X108234729Y-83019448D01*
X108198991Y-83048778D01*
X108042466Y-83132443D01*
X107872627Y-83183963D01*
X107806442Y-83190482D01*
X107740260Y-83197000D01*
X107651740Y-83197000D01*
X107585558Y-83190482D01*
X107519373Y-83183963D01*
X107349534Y-83132443D01*
X107193009Y-83048778D01*
X107157271Y-83019448D01*
X107055814Y-82936186D01*
X106972552Y-82834729D01*
X106943222Y-82798991D01*
X106859557Y-82642466D01*
X106808037Y-82472627D01*
X106790641Y-82296000D01*
X106808037Y-82119373D01*
X106859557Y-81949534D01*
X106864111Y-81941015D01*
X106943221Y-81793011D01*
X106943222Y-81793009D01*
X106977187Y-81751623D01*
X107055814Y-81655814D01*
X107157271Y-81572552D01*
X107193009Y-81543222D01*
X107349534Y-81459557D01*
X107519373Y-81408037D01*
X107585557Y-81401519D01*
X107651740Y-81395000D01*
X107740260Y-81395000D01*
X107806443Y-81401519D01*
X107806443Y-81401519D01*
G37*
G36*
X99917703Y-80746113D02*
G01*
X100078122Y-80794776D01*
X100210786Y-80865686D01*
X100225958Y-80873796D01*
X100355539Y-80980141D01*
X100461884Y-81109722D01*
X100461885Y-81109724D01*
X100540904Y-81257558D01*
X100589567Y-81417977D01*
X100605997Y-81584800D01*
X100589567Y-81751623D01*
X100540904Y-81912042D01*
X100520865Y-81949532D01*
X100461884Y-82059878D01*
X100355539Y-82189459D01*
X100225958Y-82295804D01*
X100225956Y-82295805D01*
X100078122Y-82374824D01*
X99917703Y-82423487D01*
X99792684Y-82435800D01*
X99709076Y-82435800D01*
X99584057Y-82423487D01*
X99423638Y-82374824D01*
X99275804Y-82295805D01*
X99275802Y-82295804D01*
X99146221Y-82189459D01*
X99039876Y-82059878D01*
X98980895Y-81949532D01*
X98960856Y-81912042D01*
X98912193Y-81751623D01*
X98895763Y-81584800D01*
X98912193Y-81417977D01*
X98960856Y-81257558D01*
X99039875Y-81109724D01*
X99039876Y-81109722D01*
X99146221Y-80980141D01*
X99275802Y-80873796D01*
X99290974Y-80865686D01*
X99423638Y-80794776D01*
X99584057Y-80746113D01*
X99709076Y-80733800D01*
X99792684Y-80733800D01*
X99917703Y-80746113D01*
X99917703Y-80746113D01*
G37*
G36*
X84677703Y-80746113D02*
G01*
X84838122Y-80794776D01*
X84970786Y-80865686D01*
X84985958Y-80873796D01*
X85115539Y-80980141D01*
X85221884Y-81109722D01*
X85221885Y-81109724D01*
X85300904Y-81257558D01*
X85349567Y-81417977D01*
X85365997Y-81584800D01*
X85349567Y-81751623D01*
X85300904Y-81912042D01*
X85280865Y-81949532D01*
X85221884Y-82059878D01*
X85115539Y-82189459D01*
X84985958Y-82295804D01*
X84985956Y-82295805D01*
X84838122Y-82374824D01*
X84677703Y-82423487D01*
X84552684Y-82435800D01*
X84469076Y-82435800D01*
X84344057Y-82423487D01*
X84183638Y-82374824D01*
X84035804Y-82295805D01*
X84035802Y-82295804D01*
X83906221Y-82189459D01*
X83799876Y-82059878D01*
X83740895Y-81949532D01*
X83720856Y-81912042D01*
X83672193Y-81751623D01*
X83655763Y-81584800D01*
X83672193Y-81417977D01*
X83720856Y-81257558D01*
X83799875Y-81109724D01*
X83799876Y-81109722D01*
X83906221Y-80980141D01*
X84035802Y-80873796D01*
X84050974Y-80865686D01*
X84183638Y-80794776D01*
X84344057Y-80746113D01*
X84469076Y-80733800D01*
X84552684Y-80733800D01*
X84677703Y-80746113D01*
X84677703Y-80746113D01*
G37*
G36*
X78575000Y-82131000D02*
G01*
X76873000Y-82131000D01*
X76873000Y-80429000D01*
X78575000Y-80429000D01*
X78575000Y-82131000D01*
X78575000Y-82131000D01*
G37*
G36*
X79972228Y-80461703D02*
G01*
X80127100Y-80525853D01*
X80266481Y-80618985D01*
X80385015Y-80737519D01*
X80478147Y-80876900D01*
X80542297Y-81031772D01*
X80575000Y-81196184D01*
X80575000Y-81363816D01*
X80542297Y-81528228D01*
X80478147Y-81683100D01*
X80385015Y-81822481D01*
X80266481Y-81941015D01*
X80127100Y-82034147D01*
X79972228Y-82098297D01*
X79807816Y-82131000D01*
X79640184Y-82131000D01*
X79475772Y-82098297D01*
X79320900Y-82034147D01*
X79181519Y-81941015D01*
X79062985Y-81822481D01*
X78969853Y-81683100D01*
X78905703Y-81528228D01*
X78873000Y-81363816D01*
X78873000Y-81196184D01*
X78905703Y-81031772D01*
X78969853Y-80876900D01*
X79062985Y-80737519D01*
X79181519Y-80618985D01*
X79320900Y-80525853D01*
X79475772Y-80461703D01*
X79640184Y-80429000D01*
X79807816Y-80429000D01*
X79972228Y-80461703D01*
X79972228Y-80461703D01*
G37*
G36*
X39003097Y-78884069D02*
G01*
X39106032Y-78894207D01*
X39304146Y-78954305D01*
X39304149Y-78954306D01*
X39400975Y-79006061D01*
X39486729Y-79051897D01*
X39646765Y-79183235D01*
X39778103Y-79343271D01*
X39793481Y-79372042D01*
X39875694Y-79525851D01*
X39875695Y-79525854D01*
X39935793Y-79723968D01*
X39956085Y-79930000D01*
X39935793Y-80136032D01*
X39889252Y-80289454D01*
X39875694Y-80334149D01*
X39824995Y-80429000D01*
X39778103Y-80516729D01*
X39646765Y-80676765D01*
X39486729Y-80808103D01*
X39400975Y-80853939D01*
X39304149Y-80905694D01*
X39304146Y-80905695D01*
X39106032Y-80965793D01*
X39003097Y-80975931D01*
X38951631Y-80981000D01*
X37248369Y-80981000D01*
X37196903Y-80975931D01*
X37093968Y-80965793D01*
X36895854Y-80905695D01*
X36895851Y-80905694D01*
X36799025Y-80853939D01*
X36713271Y-80808103D01*
X36553235Y-80676765D01*
X36421897Y-80516729D01*
X36375005Y-80429000D01*
X36324306Y-80334149D01*
X36310748Y-80289454D01*
X36264207Y-80136032D01*
X36243915Y-79930000D01*
X36264207Y-79723968D01*
X36324305Y-79525854D01*
X36324306Y-79525851D01*
X36406519Y-79372042D01*
X36421897Y-79343271D01*
X36553235Y-79183235D01*
X36713271Y-79051897D01*
X36799025Y-79006061D01*
X36895851Y-78954306D01*
X36895854Y-78954305D01*
X37093968Y-78894207D01*
X37196903Y-78884069D01*
X37248369Y-78879000D01*
X38951631Y-78879000D01*
X39003097Y-78884069D01*
X39003097Y-78884069D01*
G37*
G36*
X47941000Y-80961000D02*
G01*
X46039000Y-80961000D01*
X46039000Y-79059000D01*
X47941000Y-79059000D01*
X47941000Y-80961000D01*
X47941000Y-80961000D01*
G37*
G36*
X108597000Y-80657000D02*
G01*
X106795000Y-80657000D01*
X106795000Y-78855000D01*
X108597000Y-78855000D01*
X108597000Y-80657000D01*
X108597000Y-80657000D01*
G37*
G36*
X52386000Y-80326000D02*
G01*
X50484000Y-80326000D01*
X50484000Y-78424000D01*
X52386000Y-78424000D01*
X52386000Y-80326000D01*
X52386000Y-80326000D01*
G37*
G36*
X54252395Y-78460546D02*
G01*
X54425466Y-78532234D01*
X54425467Y-78532235D01*
X54581227Y-78636310D01*
X54713690Y-78768773D01*
X54713691Y-78768775D01*
X54817766Y-78924534D01*
X54889454Y-79097605D01*
X54926000Y-79281333D01*
X54926000Y-79468667D01*
X54889454Y-79652395D01*
X54817766Y-79825466D01*
X54770770Y-79895800D01*
X54713690Y-79981227D01*
X54581227Y-80113690D01*
X54502818Y-80166081D01*
X54425466Y-80217766D01*
X54252395Y-80289454D01*
X54068667Y-80326000D01*
X53881333Y-80326000D01*
X53697605Y-80289454D01*
X53524534Y-80217766D01*
X53447182Y-80166081D01*
X53368773Y-80113690D01*
X53236310Y-79981227D01*
X53179230Y-79895800D01*
X53132234Y-79825466D01*
X53060546Y-79652395D01*
X53024000Y-79468667D01*
X53024000Y-79281333D01*
X53060546Y-79097605D01*
X53132234Y-78924534D01*
X53236309Y-78768775D01*
X53236310Y-78768773D01*
X53368773Y-78636310D01*
X53524533Y-78532235D01*
X53524534Y-78532234D01*
X53697605Y-78460546D01*
X53881333Y-78424000D01*
X54068667Y-78424000D01*
X54252395Y-78460546D01*
X54252395Y-78460546D01*
G37*
G36*
X84677703Y-78206113D02*
G01*
X84838122Y-78254776D01*
X84970786Y-78325686D01*
X84985958Y-78333796D01*
X85115539Y-78440141D01*
X85221884Y-78569722D01*
X85221885Y-78569724D01*
X85300904Y-78717558D01*
X85349567Y-78877977D01*
X85365997Y-79044800D01*
X85349567Y-79211623D01*
X85300904Y-79372042D01*
X85249258Y-79468665D01*
X85221884Y-79519878D01*
X85115539Y-79649459D01*
X84985958Y-79755804D01*
X84985956Y-79755805D01*
X84838122Y-79834824D01*
X84677703Y-79883487D01*
X84552684Y-79895800D01*
X84469076Y-79895800D01*
X84344057Y-79883487D01*
X84183638Y-79834824D01*
X84035804Y-79755805D01*
X84035802Y-79755804D01*
X83906221Y-79649459D01*
X83799876Y-79519878D01*
X83772502Y-79468665D01*
X83720856Y-79372042D01*
X83672193Y-79211623D01*
X83655763Y-79044800D01*
X83672193Y-78877977D01*
X83720856Y-78717558D01*
X83799875Y-78569724D01*
X83799876Y-78569722D01*
X83906221Y-78440141D01*
X84035802Y-78333796D01*
X84050974Y-78325686D01*
X84183638Y-78254776D01*
X84344057Y-78206113D01*
X84469076Y-78193800D01*
X84552684Y-78193800D01*
X84677703Y-78206113D01*
X84677703Y-78206113D01*
G37*
G36*
X99917703Y-78206113D02*
G01*
X100078122Y-78254776D01*
X100210786Y-78325686D01*
X100225958Y-78333796D01*
X100355539Y-78440141D01*
X100461884Y-78569722D01*
X100461885Y-78569724D01*
X100540904Y-78717558D01*
X100589567Y-78877977D01*
X100605997Y-79044800D01*
X100589567Y-79211623D01*
X100540904Y-79372042D01*
X100489258Y-79468665D01*
X100461884Y-79519878D01*
X100355539Y-79649459D01*
X100225958Y-79755804D01*
X100225956Y-79755805D01*
X100078122Y-79834824D01*
X99917703Y-79883487D01*
X99792684Y-79895800D01*
X99709076Y-79895800D01*
X99584057Y-79883487D01*
X99423638Y-79834824D01*
X99275804Y-79755805D01*
X99275802Y-79755804D01*
X99146221Y-79649459D01*
X99039876Y-79519878D01*
X99012502Y-79468665D01*
X98960856Y-79372042D01*
X98912193Y-79211623D01*
X98895763Y-79044800D01*
X98912193Y-78877977D01*
X98960856Y-78717558D01*
X99039875Y-78569724D01*
X99039876Y-78569722D01*
X99146221Y-78440141D01*
X99275802Y-78333796D01*
X99290974Y-78325686D01*
X99423638Y-78254776D01*
X99584057Y-78206113D01*
X99709076Y-78193800D01*
X99792684Y-78193800D01*
X99917703Y-78206113D01*
X99917703Y-78206113D01*
G37*
G36*
X47176425Y-76532760D02*
G01*
X47176428Y-76532761D01*
X47176429Y-76532761D01*
X47355693Y-76587140D01*
X47355696Y-76587142D01*
X47355697Y-76587142D01*
X47520903Y-76675446D01*
X47665712Y-76794288D01*
X47784554Y-76939097D01*
X47872858Y-77104303D01*
X47872860Y-77104307D01*
X47927239Y-77283571D01*
X47927240Y-77283575D01*
X47945601Y-77470000D01*
X47927240Y-77656425D01*
X47927239Y-77656428D01*
X47927239Y-77656429D01*
X47872860Y-77835693D01*
X47872858Y-77835696D01*
X47872858Y-77835697D01*
X47784554Y-78000903D01*
X47665712Y-78145712D01*
X47520903Y-78264554D01*
X47355697Y-78352858D01*
X47355693Y-78352860D01*
X47176429Y-78407239D01*
X47176428Y-78407239D01*
X47176425Y-78407240D01*
X47036718Y-78421000D01*
X46943282Y-78421000D01*
X46803575Y-78407240D01*
X46803572Y-78407239D01*
X46803571Y-78407239D01*
X46624307Y-78352860D01*
X46624303Y-78352858D01*
X46459097Y-78264554D01*
X46314288Y-78145712D01*
X46195446Y-78000903D01*
X46107142Y-77835697D01*
X46107142Y-77835696D01*
X46107140Y-77835693D01*
X46052761Y-77656429D01*
X46052761Y-77656428D01*
X46052760Y-77656425D01*
X46034399Y-77470000D01*
X46052760Y-77283575D01*
X46052761Y-77283571D01*
X46107140Y-77104307D01*
X46107142Y-77104303D01*
X46195446Y-76939097D01*
X46314288Y-76794288D01*
X46459097Y-76675446D01*
X46624303Y-76587142D01*
X46624304Y-76587142D01*
X46624307Y-76587140D01*
X46803571Y-76532761D01*
X46803572Y-76532761D01*
X46803575Y-76532760D01*
X46943282Y-76519000D01*
X47036718Y-76519000D01*
X47176425Y-76532760D01*
X47176425Y-76532760D01*
G37*
G36*
X108547000Y-77305000D02*
G01*
X106845000Y-77305000D01*
X106845000Y-75603000D01*
X108547000Y-75603000D01*
X108547000Y-77305000D01*
X108547000Y-77305000D01*
G37*
G36*
X65721000Y-77151000D02*
G01*
X63819000Y-77151000D01*
X63819000Y-75249000D01*
X65721000Y-75249000D01*
X65721000Y-77151000D01*
X65721000Y-77151000D01*
G37*
G36*
X67496425Y-75262760D02*
G01*
X67496428Y-75262761D01*
X67496429Y-75262761D01*
X67675693Y-75317140D01*
X67675696Y-75317142D01*
X67675697Y-75317142D01*
X67840903Y-75405446D01*
X67985712Y-75524288D01*
X68104554Y-75669097D01*
X68192858Y-75834303D01*
X68192860Y-75834307D01*
X68247239Y-76013571D01*
X68247240Y-76013575D01*
X68265601Y-76200000D01*
X68247240Y-76386425D01*
X68247239Y-76386428D01*
X68247239Y-76386429D01*
X68192860Y-76565693D01*
X68192858Y-76565696D01*
X68192858Y-76565697D01*
X68104554Y-76730903D01*
X67985712Y-76875712D01*
X67840903Y-76994554D01*
X67675697Y-77082858D01*
X67675693Y-77082860D01*
X67496429Y-77137239D01*
X67496428Y-77137239D01*
X67496425Y-77137240D01*
X67356718Y-77151000D01*
X67263282Y-77151000D01*
X67123575Y-77137240D01*
X67123572Y-77137239D01*
X67123571Y-77137239D01*
X66944307Y-77082860D01*
X66944303Y-77082858D01*
X66779097Y-76994554D01*
X66634288Y-76875712D01*
X66515446Y-76730903D01*
X66427142Y-76565697D01*
X66427142Y-76565696D01*
X66427140Y-76565693D01*
X66372761Y-76386429D01*
X66372761Y-76386428D01*
X66372760Y-76386425D01*
X66354399Y-76200000D01*
X66372760Y-76013575D01*
X66372761Y-76013571D01*
X66427140Y-75834307D01*
X66427142Y-75834303D01*
X66515446Y-75669097D01*
X66634288Y-75524288D01*
X66779097Y-75405446D01*
X66944303Y-75317142D01*
X66944304Y-75317142D01*
X66944307Y-75317140D01*
X67123571Y-75262761D01*
X67123572Y-75262761D01*
X67123575Y-75262760D01*
X67263282Y-75249000D01*
X67356718Y-75249000D01*
X67496425Y-75262760D01*
X67496425Y-75262760D01*
G37*
G36*
X70036425Y-75262760D02*
G01*
X70036428Y-75262761D01*
X70036429Y-75262761D01*
X70215693Y-75317140D01*
X70215696Y-75317142D01*
X70215697Y-75317142D01*
X70380903Y-75405446D01*
X70525712Y-75524288D01*
X70644554Y-75669097D01*
X70732858Y-75834303D01*
X70732860Y-75834307D01*
X70787239Y-76013571D01*
X70787240Y-76013575D01*
X70805601Y-76200000D01*
X70787240Y-76386425D01*
X70787239Y-76386428D01*
X70787239Y-76386429D01*
X70732860Y-76565693D01*
X70732858Y-76565696D01*
X70732858Y-76565697D01*
X70644554Y-76730903D01*
X70525712Y-76875712D01*
X70380903Y-76994554D01*
X70215697Y-77082858D01*
X70215693Y-77082860D01*
X70036429Y-77137239D01*
X70036428Y-77137239D01*
X70036425Y-77137240D01*
X69896718Y-77151000D01*
X69803282Y-77151000D01*
X69663575Y-77137240D01*
X69663572Y-77137239D01*
X69663571Y-77137239D01*
X69484307Y-77082860D01*
X69484303Y-77082858D01*
X69319097Y-76994554D01*
X69174288Y-76875712D01*
X69055446Y-76730903D01*
X68967142Y-76565697D01*
X68967142Y-76565696D01*
X68967140Y-76565693D01*
X68912761Y-76386429D01*
X68912761Y-76386428D01*
X68912760Y-76386425D01*
X68894399Y-76200000D01*
X68912760Y-76013575D01*
X68912761Y-76013571D01*
X68967140Y-75834307D01*
X68967142Y-75834303D01*
X69055446Y-75669097D01*
X69174288Y-75524288D01*
X69319097Y-75405446D01*
X69484303Y-75317142D01*
X69484304Y-75317142D01*
X69484307Y-75317140D01*
X69663571Y-75262761D01*
X69663572Y-75262761D01*
X69663575Y-75262760D01*
X69803282Y-75249000D01*
X69896718Y-75249000D01*
X70036425Y-75262760D01*
X70036425Y-75262760D01*
G37*
G36*
X39951000Y-75981000D02*
G01*
X36249000Y-75981000D01*
X36249000Y-73879000D01*
X39951000Y-73879000D01*
X39951000Y-75981000D01*
X39951000Y-75981000D01*
G37*
G36*
X47176425Y-73992760D02*
G01*
X47176428Y-73992761D01*
X47176429Y-73992761D01*
X47355693Y-74047140D01*
X47355696Y-74047142D01*
X47355697Y-74047142D01*
X47520903Y-74135446D01*
X47665712Y-74254288D01*
X47784554Y-74399097D01*
X47841596Y-74505816D01*
X47872860Y-74564307D01*
X47914698Y-74702229D01*
X47927240Y-74743575D01*
X47945601Y-74930000D01*
X47927240Y-75116425D01*
X47927239Y-75116428D01*
X47927239Y-75116429D01*
X47872860Y-75295693D01*
X47872858Y-75295696D01*
X47872858Y-75295697D01*
X47784554Y-75460903D01*
X47665712Y-75605712D01*
X47520903Y-75724554D01*
X47355697Y-75812858D01*
X47355693Y-75812860D01*
X47176429Y-75867239D01*
X47176428Y-75867239D01*
X47176425Y-75867240D01*
X47036718Y-75881000D01*
X46943282Y-75881000D01*
X46803575Y-75867240D01*
X46803572Y-75867239D01*
X46803571Y-75867239D01*
X46624307Y-75812860D01*
X46624303Y-75812858D01*
X46459097Y-75724554D01*
X46314288Y-75605712D01*
X46195446Y-75460903D01*
X46107142Y-75295697D01*
X46107142Y-75295696D01*
X46107140Y-75295693D01*
X46052761Y-75116429D01*
X46052761Y-75116428D01*
X46052760Y-75116425D01*
X46034399Y-74930000D01*
X46052760Y-74743575D01*
X46065302Y-74702229D01*
X46107140Y-74564307D01*
X46138404Y-74505816D01*
X46195446Y-74399097D01*
X46314288Y-74254288D01*
X46459097Y-74135446D01*
X46624303Y-74047142D01*
X46624304Y-74047142D01*
X46624307Y-74047140D01*
X46803571Y-73992761D01*
X46803572Y-73992761D01*
X46803575Y-73992760D01*
X46943282Y-73979000D01*
X47036718Y-73979000D01*
X47176425Y-73992760D01*
X47176425Y-73992760D01*
G37*
G36*
X107944228Y-73635703D02*
G01*
X108099100Y-73699853D01*
X108238481Y-73792985D01*
X108357015Y-73911519D01*
X108450147Y-74050900D01*
X108514297Y-74205772D01*
X108547000Y-74370184D01*
X108547000Y-74537816D01*
X108514297Y-74702228D01*
X108450147Y-74857100D01*
X108357015Y-74996481D01*
X108238481Y-75115015D01*
X108099100Y-75208147D01*
X107944228Y-75272297D01*
X107779816Y-75305000D01*
X107612184Y-75305000D01*
X107447772Y-75272297D01*
X107292900Y-75208147D01*
X107153519Y-75115015D01*
X107034985Y-74996481D01*
X106941853Y-74857100D01*
X106877703Y-74702228D01*
X106845000Y-74537816D01*
X106845000Y-74370184D01*
X106877703Y-74205772D01*
X106941853Y-74050900D01*
X107034985Y-73911519D01*
X107153519Y-73792985D01*
X107292900Y-73699853D01*
X107447772Y-73635703D01*
X107612184Y-73603000D01*
X107779816Y-73603000D01*
X107944228Y-73635703D01*
X107944228Y-73635703D01*
G37*
G36*
X79972228Y-73603703D02*
G01*
X80127100Y-73667853D01*
X80266481Y-73760985D01*
X80385015Y-73879519D01*
X80478147Y-74018900D01*
X80542297Y-74173772D01*
X80575000Y-74338184D01*
X80575000Y-74505816D01*
X80542297Y-74670228D01*
X80478147Y-74825100D01*
X80385015Y-74964481D01*
X80266481Y-75083015D01*
X80127100Y-75176147D01*
X79972228Y-75240297D01*
X79807816Y-75273000D01*
X79640184Y-75273000D01*
X79475772Y-75240297D01*
X79320900Y-75176147D01*
X79181519Y-75083015D01*
X79062985Y-74964481D01*
X78969853Y-74825100D01*
X78905703Y-74670228D01*
X78873000Y-74505816D01*
X78873000Y-74338184D01*
X78905703Y-74173772D01*
X78969853Y-74018900D01*
X79062985Y-73879519D01*
X79181519Y-73760985D01*
X79320900Y-73667853D01*
X79475772Y-73603703D01*
X79640184Y-73571000D01*
X79807816Y-73571000D01*
X79972228Y-73603703D01*
X79972228Y-73603703D01*
G37*
G36*
X78575000Y-75273000D02*
G01*
X76873000Y-75273000D01*
X76873000Y-73571000D01*
X78575000Y-73571000D01*
X78575000Y-75273000D01*
X78575000Y-75273000D01*
G37*
G36*
X56731000Y-68796000D02*
G01*
X55029000Y-68796000D01*
X55029000Y-67094000D01*
X56731000Y-67094000D01*
X56731000Y-68796000D01*
X56731000Y-68796000D01*
G37*
G36*
X54128228Y-67126703D02*
G01*
X54283100Y-67190853D01*
X54422481Y-67283985D01*
X54541015Y-67402519D01*
X54634147Y-67541900D01*
X54698297Y-67696772D01*
X54731000Y-67861184D01*
X54731000Y-68028816D01*
X54698297Y-68193228D01*
X54634147Y-68348100D01*
X54541015Y-68487481D01*
X54422481Y-68606015D01*
X54283100Y-68699147D01*
X54128228Y-68763297D01*
X53963816Y-68796000D01*
X53796184Y-68796000D01*
X53631772Y-68763297D01*
X53476900Y-68699147D01*
X53337519Y-68606015D01*
X53218985Y-68487481D01*
X53125853Y-68348100D01*
X53061703Y-68193228D01*
X53029000Y-68028816D01*
X53029000Y-67861184D01*
X53061703Y-67696772D01*
X53125853Y-67541900D01*
X53218985Y-67402519D01*
X53337519Y-67283985D01*
X53476900Y-67190853D01*
X53631772Y-67126703D01*
X53796184Y-67094000D01*
X53963816Y-67094000D01*
X54128228Y-67126703D01*
X54128228Y-67126703D01*
G37*
G36*
X64421032Y-63569207D02*
G01*
X64619146Y-63629305D01*
X64619149Y-63629306D01*
X64715975Y-63681061D01*
X64801729Y-63726897D01*
X64961765Y-63858235D01*
X65093103Y-64018271D01*
X65138939Y-64104025D01*
X65190694Y-64200851D01*
X65190695Y-64200854D01*
X65250793Y-64398968D01*
X65266000Y-64553370D01*
X65266000Y-66256630D01*
X65250793Y-66411032D01*
X65190695Y-66609145D01*
X65190694Y-66609149D01*
X65138939Y-66705975D01*
X65093103Y-66791729D01*
X64961765Y-66951765D01*
X64801729Y-67083103D01*
X64720158Y-67126703D01*
X64619148Y-67180694D01*
X64619145Y-67180695D01*
X64421031Y-67240793D01*
X64215000Y-67261085D01*
X64008968Y-67240793D01*
X63810854Y-67180695D01*
X63810851Y-67180694D01*
X63709841Y-67126703D01*
X63628271Y-67083103D01*
X63468235Y-66951765D01*
X63336897Y-66791729D01*
X63239307Y-66609149D01*
X63239306Y-66609148D01*
X63239305Y-66609145D01*
X63179207Y-66411031D01*
X63164000Y-66256629D01*
X63164000Y-64553369D01*
X63179207Y-64398967D01*
X63239305Y-64200854D01*
X63302904Y-64081870D01*
X63336898Y-64018271D01*
X63468236Y-63858235D01*
X63628272Y-63726897D01*
X63714026Y-63681061D01*
X63810852Y-63629306D01*
X63810855Y-63629305D01*
X64008969Y-63569207D01*
X64215000Y-63548915D01*
X64421032Y-63569207D01*
X64421032Y-63569207D01*
G37*
G36*
X70266000Y-67256000D02*
G01*
X68164000Y-67256000D01*
X68164000Y-63554000D01*
X70266000Y-63554000D01*
X70266000Y-67256000D01*
X70266000Y-67256000D01*
G37*
M02*
